<?xml version="1.0" encoding="UTF-8" standalone="no"?>
<!DOCTYPE svg PUBLIC "-//W3C//DTD SVG 1.1//EN"
 "http://www.w3.org/Graphics/SVG/1.1/DTD/svg11.dtd">
<!-- Generated by graphviz version 11.0.0~dev.20240329.2055 (20240329.2055)
 -->
<!-- Title: regexp Pages: 1 -->
<svg width="803pt" height="476pt"
 viewBox="0.00 0.00 802.72 476.00" xmlns="http://www.w3.org/2000/svg" xmlns:xlink="http://www.w3.org/1999/xlink">
<g id="graph0" class="graph" transform="scale(1 1) rotate(0) translate(4 472)">
<title>regexp</title>
<polygon fill="white" stroke="none" points="-4,4 -4,-472 798.72,-472 798.72,4 -4,4"/>
<!-- n0 -->
<g id="node1" class="node">
<title>n0</title>
<g id="a_node1"><a xlink:href="https://godoc.org/regexp" xlink:title="Package regexp implements regular expression search.">
<ellipse fill="none" stroke="black" cx="289" cy="-450" rx="36" ry="18"/>
<text text-anchor="middle" x="289" y="-444.95" font-family="Times,serif" font-size="14.00">regexp</text>
</a>
</g>
</g>
<!-- n1 -->
<g id="node2" class="node">
<title>n1</title>
<g id="a_node2"><a xlink:href="https://godoc.org/bytes" xlink:title="Package bytes implements functions for the manipulation of byte slices.">
<ellipse fill="none" stroke="black" cx="140" cy="-306" rx="30.37" ry="18"/>
<text text-anchor="middle" x="140" y="-300.95" font-family="Times,serif" font-size="14.00">bytes</text>
</a>
</g>
</g>
<!-- n0&#45;&gt;n1 -->
<g id="edge1" class="edge">
<title>n0&#45;&gt;n1</title>
<path fill="none" stroke="black" d="M259.13,-439.78C236.19,-431.43 204.99,-417.17 184,-396 167.03,-378.89 155.48,-353.93 148.48,-334.8"/>
<polygon fill="black" stroke="black" points="151.84,-333.79 145.29,-325.46 145.21,-336.06 151.84,-333.79"/>
</g>
<!-- n2 -->
<g id="node3" class="node">
<title>n2</title>
<g id="a_node3"><a xlink:href="https://godoc.org/io" xlink:title="Package io provides basic interfaces to I/O primitives.">
<ellipse fill="none" stroke="black" cx="70" cy="-234" rx="27" ry="18"/>
<text text-anchor="middle" x="70" y="-228.95" font-family="Times,serif" font-size="14.00">io</text>
</a>
</g>
</g>
<!-- n0&#45;&gt;n2 -->
<g id="edge2" class="edge">
<title>n0&#45;&gt;n2</title>
<path fill="none" stroke="black" d="M256.72,-441.6C227.9,-433.81 185.62,-419.38 155,-396 111.02,-362.43 87.44,-299.49 76.93,-263.04"/>
<polygon fill="black" stroke="black" points="80.38,-262.39 74.36,-253.67 73.63,-264.24 80.38,-262.39"/>
</g>
<!-- n3 -->
<g id="node4" class="node">
<title>n3</title>
<g id="a_node4"><a xlink:href="https://godoc.org/regexp/syntax" xlink:title="Package syntax parses regular expressions into parse trees and compiles parse trees into programs.">
<ellipse fill="none" stroke="black" cx="289" cy="-378" rx="62.61" ry="18"/>
<text text-anchor="middle" x="289" y="-372.95" font-family="Times,serif" font-size="14.00">regexp/syntax</text>
</a>
</g>
</g>
<!-- n0&#45;&gt;n3 -->
<g id="edge3" class="edge">
<title>n0&#45;&gt;n3</title>
<path fill="none" stroke="black" d="M289,-431.7C289,-424.41 289,-415.73 289,-407.54"/>
<polygon fill="black" stroke="black" points="292.5,-407.62 289,-397.62 285.5,-407.62 292.5,-407.62"/>
</g>
<!-- n4 -->
<g id="node5" class="node">
<title>n4</title>
<g id="a_node5"><a xlink:href="https://godoc.org/sort" xlink:title="Package sort provides primitives for sorting slices and user&#45;defined collections.">
<ellipse fill="none" stroke="black" cx="27" cy="-306" rx="27" ry="18"/>
<text text-anchor="middle" x="27" y="-300.95" font-family="Times,serif" font-size="14.00">sort</text>
</a>
</g>
</g>
<!-- n0&#45;&gt;n4 -->
<g id="edge4" class="edge">
<title>n0&#45;&gt;n4</title>
<path fill="none" stroke="black" d="M252.66,-449.6C205.05,-448.49 121.37,-439.8 68,-396 49.31,-380.66 38.74,-354.93 33.03,-335.07"/>
<polygon fill="black" stroke="black" points="36.48,-334.44 30.58,-325.64 29.71,-336.2 36.48,-334.44"/>
</g>
<!-- n5 -->
<g id="node6" class="node">
<title>n5</title>
<g id="a_node6"><a xlink:href="https://godoc.org/strconv" xlink:title="Package strconv implements conversions to and from string representations of basic data types.">
<ellipse fill="none" stroke="black" cx="540" cy="-306" rx="38.04" ry="18"/>
<text text-anchor="middle" x="540" y="-300.95" font-family="Times,serif" font-size="14.00">strconv</text>
</a>
</g>
</g>
<!-- n0&#45;&gt;n5 -->
<g id="edge5" class="edge">
<title>n0&#45;&gt;n5</title>
<path fill="none" stroke="black" d="M324.04,-445.19C362.61,-439.61 425.11,-426.36 470,-396 493.71,-379.96 513.1,-353.38 525.41,-333.43"/>
<polygon fill="black" stroke="black" points="528.32,-335.38 530.41,-324.99 522.3,-331.81 528.32,-335.38"/>
</g>
<!-- n6 -->
<g id="node7" class="node">
<title>n6</title>
<g id="a_node7"><a xlink:href="https://godoc.org/strings" xlink:title="Package strings implements simple functions to manipulate UTF&#45;8 encoded strings.">
<ellipse fill="none" stroke="black" cx="299" cy="-306" rx="35.49" ry="18"/>
<text text-anchor="middle" x="299" y="-300.95" font-family="Times,serif" font-size="14.00">strings</text>
</a>
</g>
</g>
<!-- n0&#45;&gt;n6 -->
<g id="edge6" class="edge">
<title>n0&#45;&gt;n6</title>
<path fill="none" stroke="black" d="M315.35,-437.4C331.75,-428.62 351.48,-414.84 361,-396 368.22,-381.72 367.7,-374.53 361,-360 354.73,-346.4 343.07,-334.99 331.53,-326.29"/>
<polygon fill="black" stroke="black" points="333.85,-323.64 323.65,-320.76 329.83,-329.37 333.85,-323.64"/>
</g>
<!-- n7 -->
<g id="node8" class="node">
<title>n7</title>
<g id="a_node8"><a xlink:href="https://godoc.org/sync" xlink:title="Package sync provides basic synchronization primitives such as mutual exclusion locks.">
<ellipse fill="none" stroke="black" cx="393" cy="-162" rx="27.81" ry="18"/>
<text text-anchor="middle" x="393" y="-156.95" font-family="Times,serif" font-size="14.00">sync</text>
</a>
</g>
</g>
<!-- n0&#45;&gt;n7 -->
<g id="edge7" class="edge">
<title>n0&#45;&gt;n7</title>
<path fill="none" stroke="black" d="M324.09,-445.14C367.58,-439.28 443.02,-425.52 501,-396 575.75,-357.94 603.73,-333.64 623,-252 626.68,-236.43 632.96,-228.52 623,-216 616.96,-208.42 494.19,-183.09 430.55,-170.39"/>
<polygon fill="black" stroke="black" points="431.37,-166.98 420.88,-168.47 430.01,-173.85 431.37,-166.98"/>
</g>
<!-- n8 -->
<g id="node9" class="node">
<title>n8</title>
<g id="a_node9"><a xlink:href="https://godoc.org/unicode" xlink:title="Package unicode provides data and functions to test some properties of Unicode code points.">
<ellipse fill="none" stroke="black" cx="155" cy="-234" rx="40.09" ry="18"/>
<text text-anchor="middle" x="155" y="-228.95" font-family="Times,serif" font-size="14.00">unicode</text>
</a>
</g>
</g>
<!-- n0&#45;&gt;n8 -->
<g id="edge8" class="edge">
<title>n0&#45;&gt;n8</title>
<path fill="none" stroke="black" d="M264.99,-436.37C249.38,-427.07 229.65,-413.09 217,-396 186.72,-355.1 197.96,-335.22 179,-288 175.6,-279.53 171.61,-270.43 167.87,-262.21"/>
<polygon fill="black" stroke="black" points="171.17,-261.01 163.8,-253.4 164.81,-263.94 171.17,-261.01"/>
</g>
<!-- n9 -->
<g id="node10" class="node">
<title>n9</title>
<g id="a_node10"><a xlink:href="https://godoc.org/unicode/utf8" xlink:title="Package utf8 implements functions and constants to support text encoded in UTF&#45;8.">
<ellipse fill="none" stroke="black" cx="540" cy="-234" rx="57.49" ry="18"/>
<text text-anchor="middle" x="540" y="-228.95" font-family="Times,serif" font-size="14.00">unicode/utf8</text>
</a>
</g>
</g>
<!-- n0&#45;&gt;n9 -->
<g id="edge9" class="edge">
<title>n0&#45;&gt;n9</title>
<path fill="none" stroke="black" d="M313.15,-436.49C331.41,-426.56 356.72,-411.76 377,-396 432.07,-353.21 488.16,-293.51 518.05,-260.14"/>
<polygon fill="black" stroke="black" points="520.38,-262.78 524.41,-252.98 515.15,-258.13 520.38,-262.78"/>
</g>
<!-- n1&#45;&gt;n2 -->
<g id="edge11" class="edge">
<title>n1&#45;&gt;n2</title>
<path fill="none" stroke="black" d="M125.15,-290.15C115.65,-280.65 103.15,-268.15 92.45,-257.45"/>
<polygon fill="black" stroke="black" points="94.96,-255.01 85.42,-250.42 90.01,-259.96 94.96,-255.01"/>
</g>
<!-- n1&#45;&gt;n8 -->
<g id="edge12" class="edge">
<title>n1&#45;&gt;n8</title>
<path fill="none" stroke="black" d="M143.71,-287.7C145.29,-280.32 147.17,-271.52 148.95,-263.25"/>
<polygon fill="black" stroke="black" points="152.34,-264.1 151.02,-253.58 145.5,-262.63 152.34,-264.1"/>
</g>
<!-- n1&#45;&gt;n9 -->
<g id="edge13" class="edge">
<title>n1&#45;&gt;n9</title>
<path fill="none" stroke="black" d="M169.52,-300.68C239.82,-290.34 415.65,-264.12 474,-252 478.06,-251.16 482.25,-250.23 486.45,-249.25"/>
<polygon fill="black" stroke="black" points="487.16,-252.67 496.06,-246.92 485.52,-245.87 487.16,-252.67"/>
</g>
<!-- n10 -->
<g id="node11" class="node">
<title>n10</title>
<g id="a_node11"><a xlink:href="https://godoc.org/internal/bytealg" xlink:title="internal/bytealg">
<ellipse fill="none" stroke="black" cx="396" cy="-234" rx="68.75" ry="18"/>
<text text-anchor="middle" x="396" y="-228.95" font-family="Times,serif" font-size="14.00">internal/bytealg</text>
</a>
</g>
</g>
<!-- n1&#45;&gt;n10 -->
<g id="edge10" class="edge">
<title>n1&#45;&gt;n10</title>
<path fill="none" stroke="black" d="M167.4,-297.51C208.1,-286.38 285.46,-265.22 338.84,-250.63"/>
<polygon fill="black" stroke="black" points="339.66,-254.03 348.38,-248.02 337.82,-247.28 339.66,-254.03"/>
</g>
<!-- n11 -->
<g id="node12" class="node">
<title>n11</title>
<g id="a_node12"><a xlink:href="https://godoc.org/errors" xlink:title="Package errors implements functions to manipulate errors.">
<ellipse fill="none" stroke="black" cx="156" cy="-162" rx="32.41" ry="18"/>
<text text-anchor="middle" x="156" y="-156.95" font-family="Times,serif" font-size="14.00">errors</text>
</a>
</g>
</g>
<!-- n1&#45;&gt;n11 -->
<g id="edge14" class="edge">
<title>n1&#45;&gt;n11</title>
<path fill="none" stroke="black" d="M111.35,-299.43C86.09,-292.84 50.77,-279.13 34,-252 25.59,-238.39 25.23,-229.38 34,-216 51.53,-189.27 85.78,-175.95 113.53,-169.35"/>
<polygon fill="black" stroke="black" points="114.05,-172.82 123.09,-167.31 112.58,-165.98 114.05,-172.82"/>
</g>
<!-- n2&#45;&gt;n7 -->
<g id="edge16" class="edge">
<title>n2&#45;&gt;n7</title>
<path fill="none" stroke="black" d="M90.57,-222.17C95.52,-219.88 100.87,-217.65 106,-216 192.44,-188.13 298.54,-173.3 354.39,-166.92"/>
<polygon fill="black" stroke="black" points="354.46,-170.43 364.01,-165.85 353.69,-163.48 354.46,-170.43"/>
</g>
<!-- n2&#45;&gt;n11 -->
<g id="edge15" class="edge">
<title>n2&#45;&gt;n11</title>
<path fill="none" stroke="black" d="M86.58,-219.5C98.75,-209.6 115.54,-195.94 129.55,-184.53"/>
<polygon fill="black" stroke="black" points="131.56,-187.4 137.11,-178.37 127.15,-181.97 131.56,-187.4"/>
</g>
<!-- n3&#45;&gt;n4 -->
<g id="edge17" class="edge">
<title>n3&#45;&gt;n4</title>
<path fill="none" stroke="black" d="M244.26,-365.05C192.95,-351.34 109.86,-329.14 62.7,-316.54"/>
<polygon fill="black" stroke="black" points="63.83,-313.22 53.26,-314.02 62.02,-319.98 63.83,-313.22"/>
</g>
<!-- n3&#45;&gt;n5 -->
<g id="edge18" class="edge">
<title>n3&#45;&gt;n5</title>
<path fill="none" stroke="black" d="M332.72,-364.81C378.82,-351.95 450.98,-331.83 496.86,-319.03"/>
<polygon fill="black" stroke="black" points="497.77,-322.41 506.47,-316.35 495.89,-315.67 497.77,-322.41"/>
</g>
<!-- n3&#45;&gt;n6 -->
<g id="edge19" class="edge">
<title>n3&#45;&gt;n6</title>
<path fill="none" stroke="black" d="M291.47,-359.7C292.53,-352.32 293.78,-343.52 294.96,-335.25"/>
<polygon fill="black" stroke="black" points="298.39,-336 296.34,-325.6 291.46,-335.01 298.39,-336"/>
</g>
<!-- n3&#45;&gt;n8 -->
<g id="edge20" class="edge">
<title>n3&#45;&gt;n8</title>
<path fill="none" stroke="black" d="M275.33,-360.12C260.32,-341.86 235.27,-312.11 212,-288 202.2,-277.85 190.92,-267.16 180.98,-258.06"/>
<polygon fill="black" stroke="black" points="183.56,-255.67 173.8,-251.55 178.86,-260.86 183.56,-255.67"/>
</g>
<!-- n3&#45;&gt;n9 -->
<g id="edge21" class="edge">
<title>n3&#45;&gt;n9</title>
<path fill="none" stroke="black" d="M315.39,-361.31C345.77,-343.33 397.24,-313.11 442,-288 461.55,-277.03 483.49,-265.13 501.64,-255.39"/>
<polygon fill="black" stroke="black" points="503.07,-258.59 510.23,-250.79 499.77,-252.42 503.07,-258.59"/>
</g>
<!-- n12 -->
<g id="node13" class="node">
<title>n12</title>
<g id="a_node13"><a xlink:href="https://godoc.org/internal/reflectlite" xlink:title="Package reflectlite implements lightweight version of reflect, not using any package except for &quot;runtime&quot; and &quot;unsafe&quot;.">
<ellipse fill="none" stroke="black" cx="156" cy="-90" rx="76.94" ry="18"/>
<text text-anchor="middle" x="156" y="-84.95" font-family="Times,serif" font-size="14.00">internal/reflectlite</text>
</a>
</g>
</g>
<!-- n4&#45;&gt;n12 -->
<g id="edge22" class="edge">
<title>n4&#45;&gt;n12</title>
<path fill="none" stroke="black" d="M22.23,-287.8C18.03,-269.27 13.98,-239.29 24,-216 43.22,-171.33 87.11,-135.16 119.02,-113.43"/>
<polygon fill="black" stroke="black" points="120.83,-116.43 127.24,-107.99 116.97,-110.59 120.83,-116.43"/>
</g>
<!-- n5&#45;&gt;n9 -->
<g id="edge25" class="edge">
<title>n5&#45;&gt;n9</title>
<path fill="none" stroke="black" d="M540,-287.7C540,-280.41 540,-271.73 540,-263.54"/>
<polygon fill="black" stroke="black" points="543.5,-263.62 540,-253.62 536.5,-263.62 543.5,-263.62"/>
</g>
<!-- n5&#45;&gt;n10 -->
<g id="edge23" class="edge">
<title>n5&#45;&gt;n10</title>
<path fill="none" stroke="black" d="M514.26,-292.49C493.02,-282.16 462.48,-267.31 437.75,-255.29"/>
<polygon fill="black" stroke="black" points="439.44,-252.22 428.91,-251 436.38,-258.52 439.44,-252.22"/>
</g>
<!-- n5&#45;&gt;n11 -->
<g id="edge26" class="edge">
<title>n5&#45;&gt;n11</title>
<path fill="none" stroke="black" d="M565.22,-292.26C580.07,-283.24 597.55,-269.62 606,-252 612.92,-237.57 616.63,-227.96 606,-216 592.54,-200.86 309.37,-175.77 199.26,-166.54"/>
<polygon fill="black" stroke="black" points="199.7,-163.07 189.44,-165.73 199.12,-170.04 199.7,-163.07"/>
</g>
<!-- n13 -->
<g id="node14" class="node">
<title>n13</title>
<g id="a_node14"><a xlink:href="https://godoc.org/math" xlink:title="Package math provides basic constants and mathematical functions.">
<ellipse fill="none" stroke="black" cx="721" cy="-234" rx="29.86" ry="18"/>
<text text-anchor="middle" x="721" y="-228.95" font-family="Times,serif" font-size="14.00">math</text>
</a>
</g>
</g>
<!-- n5&#45;&gt;n13 -->
<g id="edge24" class="edge">
<title>n5&#45;&gt;n13</title>
<path fill="none" stroke="black" d="M568.68,-293.91C600.43,-281.63 651.63,-261.83 685.79,-248.62"/>
<polygon fill="black" stroke="black" points="686.76,-252 694.82,-245.12 684.23,-245.47 686.76,-252"/>
</g>
<!-- n14 -->
<g id="node15" class="node">
<title>n14</title>
<g id="a_node15"><a xlink:href="https://godoc.org/math/bits" xlink:title="Package bits implements bit counting and manipulation functions for the predeclared unsigned integer types.">
<ellipse fill="none" stroke="black" cx="749" cy="-162" rx="45.72" ry="18"/>
<text text-anchor="middle" x="749" y="-156.95" font-family="Times,serif" font-size="14.00">math/bits</text>
</a>
</g>
</g>
<!-- n5&#45;&gt;n14 -->
<g id="edge27" class="edge">
<title>n5&#45;&gt;n14</title>
<path fill="none" stroke="black" d="M577.11,-301.52C633.77,-295.35 737.63,-280.39 760,-252 773.53,-234.82 768.9,-209.71 761.97,-190.53"/>
<polygon fill="black" stroke="black" points="765.29,-189.41 758.31,-181.44 758.8,-192.02 765.29,-189.41"/>
</g>
<!-- n6&#45;&gt;n2 -->
<g id="edge28" class="edge">
<title>n6&#45;&gt;n2</title>
<path fill="none" stroke="black" d="M266.7,-297.94C227.93,-289.05 161.23,-272.45 106,-252 104.46,-251.43 102.9,-250.82 101.33,-250.18"/>
<polygon fill="black" stroke="black" points="103.01,-247.1 92.45,-246.3 100.2,-253.51 103.01,-247.1"/>
</g>
<!-- n6&#45;&gt;n7 -->
<g id="edge29" class="edge">
<title>n6&#45;&gt;n7</title>
<path fill="none" stroke="black" d="M299.06,-287.51C299.9,-268.44 303.65,-237.76 318,-216 328.51,-200.06 345.6,-187.43 360.82,-178.51"/>
<polygon fill="black" stroke="black" points="362.07,-181.82 369.13,-173.92 358.69,-175.69 362.07,-181.82"/>
</g>
<!-- n6&#45;&gt;n8 -->
<g id="edge33" class="edge">
<title>n6&#45;&gt;n8</title>
<path fill="none" stroke="black" d="M273.92,-292.81C251.11,-281.72 217.19,-265.23 191.4,-252.69"/>
<polygon fill="black" stroke="black" points="193.14,-249.65 182.62,-248.42 190.08,-255.94 193.14,-249.65"/>
</g>
<!-- n6&#45;&gt;n9 -->
<g id="edge34" class="edge">
<title>n6&#45;&gt;n9</title>
<path fill="none" stroke="black" d="M329.04,-296.28C368.84,-284.72 439.67,-264.14 488.19,-250.05"/>
<polygon fill="black" stroke="black" points="489.02,-253.45 497.64,-247.3 487.06,-246.73 489.02,-253.45"/>
</g>
<!-- n6&#45;&gt;n10 -->
<g id="edge32" class="edge">
<title>n6&#45;&gt;n10</title>
<path fill="none" stroke="black" d="M318.63,-290.83C331.74,-281.37 349.28,-268.72 364.34,-257.85"/>
<polygon fill="black" stroke="black" points="366.05,-260.93 372.11,-252.24 361.95,-255.25 366.05,-260.93"/>
</g>
<!-- n6&#45;&gt;n11 -->
<g id="edge31" class="edge">
<title>n6&#45;&gt;n11</title>
<path fill="none" stroke="black" d="M283.42,-289.53C258.26,-264.54 208.51,-215.14 179.17,-186.01"/>
<polygon fill="black" stroke="black" points="181.76,-183.65 172.2,-179.09 176.83,-188.62 181.76,-183.65"/>
</g>
<!-- n15 -->
<g id="node16" class="node">
<title>n15</title>
<g id="a_node16"><a xlink:href="https://godoc.org/unsafe" xlink:title="Package unsafe contains operations that step around the type safety of Go programs.">
<ellipse fill="none" stroke="black" cx="415" cy="-18" rx="34.97" ry="18"/>
<text text-anchor="middle" x="415" y="-12.95" font-family="Times,serif" font-size="14.00">unsafe</text>
</a>
</g>
</g>
<!-- n6&#45;&gt;n15 -->
<g id="edge30" class="edge">
<title>n6&#45;&gt;n15</title>
<path fill="none" stroke="black" d="M297.21,-287.72C295.79,-269.62 294.81,-240.49 300,-216 314.45,-147.83 322.89,-129.67 362,-72 369.49,-60.95 379.49,-50.25 388.79,-41.38"/>
<polygon fill="black" stroke="black" points="390.92,-44.17 395.92,-34.83 386.19,-39.02 390.92,-44.17"/>
</g>
<!-- n7&#45;&gt;n15 -->
<g id="edge38" class="edge">
<title>n7&#45;&gt;n15</title>
<path fill="none" stroke="black" d="M391.35,-143.75C390.05,-125.68 389.17,-96.56 394,-72 395.71,-63.32 398.78,-54.24 402.06,-46.1"/>
<polygon fill="black" stroke="black" points="405.2,-47.66 405.95,-37.09 398.77,-44.89 405.2,-47.66"/>
</g>
<!-- n16 -->
<g id="node17" class="node">
<title>n16</title>
<g id="a_node17"><a xlink:href="https://godoc.org/internal/race" xlink:title="Package race contains helper functions for manually instrumenting code for the race detector.">
<ellipse fill="none" stroke="black" cx="460" cy="-90" rx="56.98" ry="18"/>
<text text-anchor="middle" x="460" y="-84.95" font-family="Times,serif" font-size="14.00">internal/race</text>
</a>
</g>
</g>
<!-- n7&#45;&gt;n16 -->
<g id="edge35" class="edge">
<title>n7&#45;&gt;n16</title>
<path fill="none" stroke="black" d="M407.21,-146.15C415.73,-137.25 426.78,-125.71 436.57,-115.48"/>
<polygon fill="black" stroke="black" points="438.98,-118.03 443.36,-108.38 433.92,-113.19 438.98,-118.03"/>
</g>
<!-- n17 -->
<g id="node18" class="node">
<title>n17</title>
<g id="a_node18"><a xlink:href="https://godoc.org/runtime" xlink:title="runtime">
<ellipse fill="none" stroke="black" cx="259" cy="-18" rx="40.09" ry="18"/>
<text text-anchor="middle" x="259" y="-12.95" font-family="Times,serif" font-size="14.00">runtime</text>
</a>
</g>
</g>
<!-- n7&#45;&gt;n17 -->
<g id="edge36" class="edge">
<title>n7&#45;&gt;n17</title>
<path fill="none" stroke="black" d="M378.91,-146.07C355.8,-121.57 309.6,-72.62 281.78,-43.14"/>
<polygon fill="black" stroke="black" points="284.57,-41 275.16,-36.13 279.48,-45.8 284.57,-41"/>
</g>
<!-- n18 -->
<g id="node19" class="node">
<title>n18</title>
<g id="a_node19"><a xlink:href="https://godoc.org/sync/atomic" xlink:title="Package atomic provides low&#45;level atomic memory primitives useful for implementing synchronization algorithms.">
<ellipse fill="none" stroke="black" cx="591" cy="-90" rx="55.96" ry="18"/>
<text text-anchor="middle" x="591" y="-84.95" font-family="Times,serif" font-size="14.00">sync/atomic</text>
</a>
</g>
</g>
<!-- n7&#45;&gt;n18 -->
<g id="edge37" class="edge">
<title>n7&#45;&gt;n18</title>
<path fill="none" stroke="black" d="M416.88,-152.56C448.1,-141.52 503.48,-121.94 543.41,-107.82"/>
<polygon fill="black" stroke="black" points="544.54,-111.14 552.81,-104.5 542.21,-104.54 544.54,-111.14"/>
</g>
<!-- n10&#45;&gt;n15 -->
<g id="edge40" class="edge">
<title>n10&#45;&gt;n15</title>
<path fill="none" stroke="black" d="M379.1,-216.53C370.38,-206.83 360.61,-193.77 356,-180 350.92,-164.83 352.86,-159.69 356,-144 363.29,-107.56 383.35,-69.46 398.07,-45.05"/>
<polygon fill="black" stroke="black" points="400.91,-47.1 403.2,-36.75 394.96,-43.42 400.91,-47.1"/>
</g>
<!-- n19 -->
<g id="node20" class="node">
<title>n19</title>
<g id="a_node20"><a xlink:href="https://godoc.org/internal/cpu" xlink:title="Package cpu implements processor feature detection used by the Go standard library.">
<ellipse fill="none" stroke="black" cx="543" cy="-162" rx="54.93" ry="18"/>
<text text-anchor="middle" x="543" y="-156.95" font-family="Times,serif" font-size="14.00">internal/cpu</text>
</a>
</g>
</g>
<!-- n10&#45;&gt;n19 -->
<g id="edge39" class="edge">
<title>n10&#45;&gt;n19</title>
<path fill="none" stroke="black" d="M428.26,-217.64C450.1,-207.24 479.12,-193.42 502.52,-182.28"/>
<polygon fill="black" stroke="black" points="503.93,-185.48 511.45,-178.02 500.92,-179.16 503.93,-185.48"/>
</g>
<!-- n11&#45;&gt;n12 -->
<g id="edge41" class="edge">
<title>n11&#45;&gt;n12</title>
<path fill="none" stroke="black" d="M156,-143.7C156,-136.41 156,-127.73 156,-119.54"/>
<polygon fill="black" stroke="black" points="159.5,-119.62 156,-109.62 152.5,-119.62 159.5,-119.62"/>
</g>
<!-- n12&#45;&gt;n15 -->
<g id="edge43" class="edge">
<title>n12&#45;&gt;n15</title>
<path fill="none" stroke="black" d="M205.02,-75.75C253.69,-62.6 327.49,-42.65 373.39,-30.25"/>
<polygon fill="black" stroke="black" points="374.23,-33.65 382.97,-27.66 372.4,-26.89 374.23,-33.65"/>
</g>
<!-- n12&#45;&gt;n17 -->
<g id="edge42" class="edge">
<title>n12&#45;&gt;n17</title>
<path fill="none" stroke="black" d="M180.15,-72.59C194.53,-62.82 212.91,-50.32 228.31,-39.86"/>
<polygon fill="black" stroke="black" points="229.9,-43.01 236.2,-34.49 225.96,-37.22 229.9,-43.01"/>
</g>
<!-- n13&#45;&gt;n14 -->
<g id="edge46" class="edge">
<title>n13&#45;&gt;n14</title>
<path fill="none" stroke="black" d="M727.78,-216.05C730.79,-208.52 734.43,-199.44 737.83,-190.94"/>
<polygon fill="black" stroke="black" points="741.06,-192.27 741.53,-181.68 734.56,-189.67 741.06,-192.27"/>
</g>
<!-- n13&#45;&gt;n15 -->
<g id="edge44" class="edge">
<title>n13&#45;&gt;n15</title>
<path fill="none" stroke="black" d="M711.91,-216.56C706.38,-206.23 699.37,-192.53 694,-180 673.96,-133.23 694.1,-105.72 656,-72 627.44,-46.73 522.06,-30.97 460.51,-23.72"/>
<polygon fill="black" stroke="black" points="461.02,-20.26 450.69,-22.6 460.23,-27.21 461.02,-20.26"/>
</g>
<!-- n13&#45;&gt;n19 -->
<g id="edge45" class="edge">
<title>n13&#45;&gt;n19</title>
<path fill="none" stroke="black" d="M696.62,-223.41C668.58,-212.39 621.96,-194.05 587.42,-180.47"/>
<polygon fill="black" stroke="black" points="589.12,-177.38 578.53,-176.97 586.56,-183.89 589.12,-177.38"/>
</g>
<!-- n14&#45;&gt;n15 -->
<g id="edge47" class="edge">
<title>n14&#45;&gt;n15</title>
<path fill="none" stroke="black" d="M742.34,-143.89C733.42,-123.38 715.58,-89.58 689,-72 652.09,-47.59 528.33,-31.03 460.47,-23.54"/>
<polygon fill="black" stroke="black" points="461.1,-20.09 450.78,-22.5 460.35,-27.05 461.1,-20.09"/>
</g>
<!-- n16&#45;&gt;n15 -->
<g id="edge48" class="edge">
<title>n16&#45;&gt;n15</title>
<path fill="none" stroke="black" d="M449.11,-72.05C443.83,-63.85 437.39,-53.83 431.53,-44.71"/>
<polygon fill="black" stroke="black" points="434.65,-43.1 426.3,-36.58 428.77,-46.88 434.65,-43.1"/>
</g>
<!-- n18&#45;&gt;n15 -->
<g id="edge49" class="edge">
<title>n18&#45;&gt;n15</title>
<path fill="none" stroke="black" d="M556.65,-75.34C526.67,-63.41 483.26,-46.15 452.41,-33.88"/>
<polygon fill="black" stroke="black" points="454.06,-30.77 443.47,-30.32 451.47,-37.27 454.06,-30.77"/>
</g>
</g>
</svg>
