<?xml version="1.0" encoding="UTF-8" standalone="no"?>
<!DOCTYPE svg PUBLIC "-//W3C//DTD SVG 1.1//EN"
 "http://www.w3.org/Graphics/SVG/1.1/DTD/svg11.dtd">
<!-- Generated by graphviz version 11.0.0~dev.20240329.2055 (20240329.2055)
 -->
<!-- Title: prof Pages: 1 -->
<svg width="2032pt" height="620pt"
 viewBox="0.00 0.00 2031.81 620.00" xmlns="http://www.w3.org/2000/svg" xmlns:xlink="http://www.w3.org/1999/xlink">
<g id="graph0" class="graph" transform="scale(1 1) rotate(0) translate(4 616)">
<title>prof</title>
<polygon fill="white" stroke="none" points="-4,4 -4,-616 2027.81,-616 2027.81,4 -4,4"/>
<!-- start -->
<g id="node1" class="node">
<title>start</title>
<ellipse fill="none" stroke="black" cx="1309.44" cy="-594" rx="27" ry="18"/>
<text text-anchor="middle" x="1309.44" y="-588.95" font-family="Times,serif" font-size="14.00">start</text>
</g>
<!-- main -->
<g id="node2" class="node">
<title>main</title>
<ellipse fill="none" stroke="#ccd1ff" cx="980.44" cy="-450" rx="29.86" ry="18"/>
<text text-anchor="middle" x="980.44" y="-444.95" font-family="Times,serif" font-size="14.00">main</text>
</g>
<!-- start&#45;&gt;main -->
<g id="edge1" class="edge">
<title>start&#45;&gt;main</title>
<path fill="none" stroke="#fe0300" d="M1287.08,-583.35C1230.64,-558.99 1082.07,-494.87 1014.62,-465.75"/>
<polygon fill="#fe0300" stroke="#fe0300" points="1016.1,-462.58 1005.53,-461.83 1013.33,-469.01 1016.1,-462.58"/>
</g>
<!-- on_exit -->
<g id="node3" class="node">
<title>on_exit</title>
<ellipse fill="none" stroke="#ccd1ff" cx="1491.44" cy="-522" rx="38.56" ry="18"/>
<text text-anchor="middle" x="1491.44" y="-516.95" font-family="Times,serif" font-size="14.00">on_exit</text>
</g>
<!-- start&#45;&gt;on_exit -->
<g id="edge2" class="edge">
<title>start&#45;&gt;on_exit</title>
<path fill="none" stroke="#3542b2" d="M1330.61,-582.6C1335.45,-580.34 1340.59,-578.02 1345.44,-576 1380.2,-561.52 1420.49,-547.06 1449.92,-536.92"/>
<polygon fill="#3542b2" stroke="#3542b2" points="1450.88,-540.29 1459.21,-533.74 1448.61,-533.67 1450.88,-540.29"/>
</g>
<!-- sort -->
<g id="node4" class="node">
<title>sort</title>
<ellipse fill="none" stroke="#80ffb8" cx="340.44" cy="-378" rx="27" ry="18"/>
<text text-anchor="middle" x="340.44" y="-372.95" font-family="Times,serif" font-size="14.00">sort</text>
</g>
<!-- main&#45;&gt;sort -->
<g id="edge3" class="edge">
<title>main&#45;&gt;sort</title>
<path fill="none" stroke="#22d532" d="M950.31,-449.54C861.67,-450.45 594.61,-448.32 381.44,-396 378.45,-395.27 375.4,-394.35 372.38,-393.33"/>
<polygon fill="#22d532" stroke="#22d532" points="373.73,-390.09 363.14,-389.81 371.24,-396.64 373.73,-390.09"/>
</g>
<!-- merge -->
<g id="node5" class="node">
<title>merge</title>
<ellipse fill="none" stroke="#bdd6ff" cx="457.44" cy="-378" rx="34.46" ry="18"/>
<text text-anchor="middle" x="457.44" y="-372.95" font-family="Times,serif" font-size="14.00">merge</text>
</g>
<!-- main&#45;&gt;merge -->
<g id="edge4" class="edge">
<title>main&#45;&gt;merge</title>
<path fill="none" stroke="#2eb4c2" d="M951.2,-445.09C864.2,-433.44 606.58,-398.96 502.16,-384.99"/>
<polygon fill="#2eb4c2" stroke="#2eb4c2" points="502.66,-381.52 492.28,-383.66 501.73,-388.46 502.66,-381.52"/>
</g>
<!-- term -->
<g id="node6" class="node">
<title>term</title>
<ellipse fill="none" stroke="#ccd1ff" cx="834.44" cy="-378" rx="28.32" ry="18"/>
<text text-anchor="middle" x="834.44" y="-372.95" font-family="Times,serif" font-size="14.00">term</text>
</g>
<!-- main&#45;&gt;term -->
<g id="edge5" class="edge">
<title>main&#45;&gt;term</title>
<path fill="none" stroke="#3544b3" d="M957.63,-438.06C933.27,-426.39 894.47,-407.78 866.93,-394.58"/>
<polygon fill="#3544b3" stroke="#3544b3" points="868.51,-391.45 857.98,-390.29 865.48,-397.77 868.51,-391.45"/>
</g>
<!-- signal -->
<g id="node7" class="node">
<title>signal</title>
<ellipse fill="none" stroke="#cad1ff" cx="1165.44" cy="-306" rx="32.93" ry="18"/>
<text text-anchor="middle" x="1165.44" y="-300.95" font-family="Times,serif" font-size="14.00">signal</text>
</g>
<!-- main&#45;&gt;signal -->
<g id="edge6" class="edge">
<title>main&#45;&gt;signal</title>
<path fill="none" stroke="#3542b2" d="M1010.43,-448.16C1077.57,-445.57 1236.66,-435.34 1269.44,-396 1279.68,-383.71 1277.8,-373.64 1269.44,-360 1255.79,-337.73 1229.52,-324.45 1206.79,-316.75"/>
<polygon fill="#3542b2" stroke="#3542b2" points="1208.03,-313.47 1197.44,-313.85 1205.96,-320.15 1208.03,-313.47"/>
</g>
<!-- sbrk -->
<g id="node8" class="node">
<title>sbrk</title>
<ellipse fill="none" stroke="#cad1ff" cx="1654.44" cy="-90" rx="27" ry="18"/>
<text text-anchor="middle" x="1654.44" y="-84.95" font-family="Times,serif" font-size="14.00">sbrk</text>
</g>
<!-- main&#45;&gt;sbrk -->
<g id="edge7" class="edge">
<title>main&#45;&gt;sbrk</title>
<path fill="none" stroke="#3542b2" d="M1010.29,-448.34C1124.96,-445.52 1532.96,-432.96 1576.44,-396 1659.03,-325.79 1660.46,-181.3 1656.92,-119.77"/>
<polygon fill="#3542b2" stroke="#3542b2" points="1660.41,-119.53 1656.24,-109.79 1653.43,-120.01 1660.41,-119.53"/>
</g>
<!-- unlink -->
<g id="node9" class="node">
<title>unlink</title>
<ellipse fill="none" stroke="#c5d2ff" cx="830.44" cy="-306" rx="34.46" ry="18"/>
<text text-anchor="middle" x="830.44" y="-300.95" font-family="Times,serif" font-size="14.00">unlink</text>
</g>
<!-- main&#45;&gt;unlink -->
<g id="edge8" class="edge">
<title>main&#45;&gt;unlink</title>
<path fill="none" stroke="#3542b2" d="M950.53,-447.36C889.4,-443.31 753.55,-430.55 725.44,-396 715.34,-383.59 717.05,-373.63 725.44,-360 733.13,-347.5 765.27,-332.34 791.99,-321.44"/>
<polygon fill="#3542b2" stroke="#3542b2" points="793.24,-324.7 801.24,-317.75 790.65,-318.2 793.24,-324.7"/>
</g>
<!-- newfile -->
<g id="node10" class="node">
<title>newfile</title>
<ellipse fill="none" stroke="#ccd1ff" cx="701.44" cy="-306" rx="38.56" ry="18"/>
<text text-anchor="middle" x="701.44" y="-300.95" font-family="Times,serif" font-size="14.00">newfile</text>
</g>
<!-- main&#45;&gt;newfile -->
<g id="edge9" class="edge">
<title>main&#45;&gt;newfile</title>
<path fill="none" stroke="#3542b2" d="M950.61,-447.28C888.11,-443.02 746.54,-429.8 714.44,-396 699.39,-380.15 696.91,-355.03 697.75,-335.52"/>
<polygon fill="#3542b2" stroke="#3542b2" points="701.23,-335.97 698.51,-325.73 694.25,-335.43 701.23,-335.97"/>
</g>
<!-- fclose -->
<g id="node11" class="node">
<title>fclose</title>
<ellipse fill="none" stroke="#ccd1ff" cx="349.44" cy="-306" rx="32.93" ry="18"/>
<text text-anchor="middle" x="349.44" y="-300.95" font-family="Times,serif" font-size="14.00">fclose</text>
</g>
<!-- main&#45;&gt;fclose -->
<g id="edge10" class="edge">
<title>main&#45;&gt;fclose</title>
<path fill="none" stroke="#3542b2" d="M950.45,-449.38C847.13,-450.19 507.22,-448.72 414.44,-396 389.93,-382.08 372.1,-354.7 361.38,-333.97"/>
<polygon fill="#3542b2" stroke="#3542b2" points="364.63,-332.65 357.09,-325.2 358.35,-335.72 364.63,-332.65"/>
</g>
<!-- close -->
<g id="node12" class="node">
<title>close</title>
<ellipse fill="none" stroke="#ccd1ff" cx="605.44" cy="-234" rx="29.86" ry="18"/>
<text text-anchor="middle" x="605.44" y="-228.95" font-family="Times,serif" font-size="14.00">close</text>
</g>
<!-- main&#45;&gt;close -->
<g id="edge11" class="edge">
<title>main&#45;&gt;close</title>
<path fill="none" stroke="#3542b2" d="M950.79,-446.66C886.25,-441.07 735.49,-425.19 694.44,-396 648.76,-363.51 623.88,-299.9 612.75,-263.11"/>
<polygon fill="#3542b2" stroke="#3542b2" points="616.16,-262.28 610.03,-253.63 609.43,-264.21 616.16,-262.28"/>
</g>
<!-- brk -->
<g id="node13" class="node">
<title>brk</title>
<ellipse fill="none" stroke="#ccd1ff" cx="761.44" cy="-378" rx="27" ry="18"/>
<text text-anchor="middle" x="761.44" y="-372.95" font-family="Times,serif" font-size="14.00">brk</text>
</g>
<!-- main&#45;&gt;brk -->
<g id="edge12" class="edge">
<title>main&#45;&gt;brk</title>
<path fill="none" stroke="#3542b2" d="M953.02,-442.51C916.84,-433.62 851.43,-416.42 797.44,-396 795.9,-395.42 794.34,-394.8 792.77,-394.15"/>
<polygon fill="#3542b2" stroke="#3542b2" points="794.46,-391.07 783.9,-390.25 791.64,-397.48 794.46,-391.07"/>
</g>
<!-- setbuf -->
<g id="node14" class="node">
<title>setbuf</title>
<ellipse fill="none" stroke="#ccd1ff" cx="33.44" cy="-306" rx="33.44" ry="18"/>
<text text-anchor="middle" x="33.44" y="-300.95" font-family="Times,serif" font-size="14.00">setbuf</text>
</g>
<!-- main&#45;&gt;setbuf -->
<g id="edge13" class="edge">
<title>main&#45;&gt;setbuf</title>
<path fill="none" stroke="#3542b2" d="M950.44,-449.19C855.01,-449.24 550.3,-445.27 304.44,-396 218.26,-378.73 121.32,-342.63 69.96,-322.11"/>
<polygon fill="#3542b2" stroke="#3542b2" points="71.4,-318.92 60.82,-318.42 68.79,-325.41 71.4,-318.92"/>
</g>
<!-- copyproto -->
<g id="node15" class="node">
<title>copyproto</title>
<ellipse fill="none" stroke="#ccd1ff" cx="929.44" cy="-378" rx="48.28" ry="18"/>
<text text-anchor="middle" x="929.44" y="-372.95" font-family="Times,serif" font-size="14.00">copyproto</text>
</g>
<!-- main&#45;&gt;copyproto -->
<g id="edge14" class="edge">
<title>main&#45;&gt;copyproto</title>
<path fill="none" stroke="#3542b2" d="M968.87,-433.12C962.78,-424.77 955.17,-414.32 948.27,-404.84"/>
<polygon fill="#3542b2" stroke="#3542b2" points="951.28,-403.04 942.57,-397.02 945.63,-407.16 951.28,-403.04"/>
</g>
<!-- initree -->
<g id="node16" class="node">
<title>initree</title>
<ellipse fill="none" stroke="#ccd1ff" cx="1030.44" cy="-378" rx="34.46" ry="18"/>
<text text-anchor="middle" x="1030.44" y="-372.95" font-family="Times,serif" font-size="14.00">initree</text>
</g>
<!-- main&#45;&gt;initree -->
<g id="edge15" class="edge">
<title>main&#45;&gt;initree</title>
<path fill="none" stroke="#3542b2" d="M991.78,-433.12C997.83,-424.64 1005.42,-414.02 1012.27,-404.43"/>
<polygon fill="#3542b2" stroke="#3542b2" points="1014.95,-406.71 1017.91,-396.54 1009.25,-402.64 1014.95,-406.71"/>
</g>
<!-- safeoutfil -->
<g id="node17" class="node">
<title>safeoutfil</title>
<ellipse fill="none" stroke="#ccd1ff" cx="1128.44" cy="-378" rx="45.72" ry="18"/>
<text text-anchor="middle" x="1128.44" y="-372.95" font-family="Times,serif" font-size="14.00">safeoutfil</text>
</g>
<!-- main&#45;&gt;safeoutfil -->
<g id="edge16" class="edge">
<title>main&#45;&gt;safeoutfil</title>
<path fill="none" stroke="#3542b2" d="M1003.56,-438.06C1026.53,-427.2 1062.17,-410.34 1089.5,-397.41"/>
<polygon fill="#3542b2" stroke="#3542b2" points="1090.99,-400.58 1098.53,-393.14 1088,-394.26 1090.99,-400.58"/>
</g>
<!-- getpid -->
<g id="node18" class="node">
<title>getpid</title>
<ellipse fill="none" stroke="#ccd1ff" cx="1226.44" cy="-378" rx="33.95" ry="18"/>
<text text-anchor="middle" x="1226.44" y="-372.95" font-family="Times,serif" font-size="14.00">getpid</text>
</g>
<!-- main&#45;&gt;getpid -->
<g id="edge17" class="edge">
<title>main&#45;&gt;getpid</title>
<path fill="none" stroke="#3542b2" d="M1008.33,-442.85C1047.74,-433.9 1121.81,-416.14 1183.44,-396 1185.41,-395.35 1187.43,-394.67 1189.45,-393.95"/>
<polygon fill="#3542b2" stroke="#3542b2" points="1190.67,-397.23 1198.82,-390.47 1188.23,-390.67 1190.67,-397.23"/>
</g>
<!-- sprintf -->
<g id="node19" class="node">
<title>sprintf</title>
<ellipse fill="none" stroke="#ccd1ff" cx="1427.44" cy="-378" rx="34.97" ry="18"/>
<text text-anchor="middle" x="1427.44" y="-372.95" font-family="Times,serif" font-size="14.00">sprintf</text>
</g>
<!-- main&#45;&gt;sprintf -->
<g id="edge18" class="edge">
<title>main&#45;&gt;sprintf</title>
<path fill="none" stroke="#3542b2" d="M1010.47,-447.49C1078.06,-443.58 1246.85,-430.84 1383.44,-396 1385.73,-395.41 1388.07,-394.75 1390.41,-394.02"/>
<polygon fill="#3542b2" stroke="#3542b2" points="1391.5,-397.34 1399.81,-390.78 1389.22,-390.73 1391.5,-397.34"/>
</g>
<!-- creat -->
<g id="node20" class="node">
<title>creat</title>
<ellipse fill="none" stroke="#ccd1ff" cx="1345.44" cy="-378" rx="28.83" ry="18"/>
<text text-anchor="middle" x="1345.44" y="-372.95" font-family="Times,serif" font-size="14.00">creat</text>
</g>
<!-- main&#45;&gt;creat -->
<g id="edge19" class="edge">
<title>main&#45;&gt;creat</title>
<path fill="none" stroke="#3542b2" d="M1009.75,-446.29C1066.88,-440.55 1196.78,-425.22 1302.44,-396 1305.56,-395.14 1308.76,-394.12 1311.94,-393.03"/>
<polygon fill="#3542b2" stroke="#3542b2" points="1312.96,-396.39 1321.12,-389.63 1310.53,-389.82 1312.96,-396.39"/>
</g>
<!-- rem -->
<g id="node21" class="node">
<title>rem</title>
<ellipse fill="none" stroke="#ccd1ff" cx="1068.44" cy="-162" rx="27" ry="18"/>
<text text-anchor="middle" x="1068.44" y="-156.95" font-family="Times,serif" font-size="14.00">rem</text>
</g>
<!-- main&#45;&gt;rem -->
<g id="edge20" class="edge">
<title>main&#45;&gt;rem</title>
<path fill="none" stroke="#3542b2" d="M1010.5,-448.56C1124.03,-446.61 1522.14,-436.87 1559.44,-396 1584.49,-368.55 1547.91,-257.41 1487.44,-216 1416.9,-167.7 1186.89,-202.59 1104.44,-180 1102.81,-179.55 1101.17,-179.04 1099.53,-178.47"/>
<polygon fill="#3542b2" stroke="#3542b2" points="1100.89,-175.25 1090.31,-174.73 1098.26,-181.73 1100.89,-175.25"/>
</g>
<!-- oldfile -->
<g id="node22" class="node">
<title>oldfile</title>
<ellipse fill="none" stroke="#ccd1ff" cx="1515.44" cy="-378" rx="34.97" ry="18"/>
<text text-anchor="middle" x="1515.44" y="-372.95" font-family="Times,serif" font-size="14.00">oldfile</text>
</g>
<!-- main&#45;&gt;oldfile -->
<g id="edge21" class="edge">
<title>main&#45;&gt;oldfile</title>
<path fill="none" stroke="#3542b2" d="M1010.51,-448.47C1088.01,-446.53 1300.43,-437.51 1471.44,-396 1473.74,-395.44 1476.08,-394.79 1478.43,-394.08"/>
<polygon fill="#3542b2" stroke="#3542b2" points="1479.5,-397.41 1487.84,-390.88 1477.24,-390.79 1479.5,-397.41"/>
</g>
<!-- malloc -->
<g id="node44" class="node">
<title>malloc</title>
<ellipse fill="none" stroke="#ccd1ff" cx="1691.44" cy="-450" rx="36.51" ry="18"/>
<text text-anchor="middle" x="1691.44" y="-444.95" font-family="Times,serif" font-size="14.00">malloc</text>
</g>
<!-- on_exit&#45;&gt;malloc -->
<g id="edge71" class="edge">
<title>on_exit&#45;&gt;malloc</title>
<path fill="none" stroke="#29d820" d="M1521.38,-510.52C1555.99,-498.41 1613.11,-478.41 1651.49,-464.98"/>
<polygon fill="#29d820" stroke="#29d820" points="1652.56,-468.32 1660.84,-461.71 1650.25,-461.71 1652.56,-468.32"/>
</g>
<!-- sort&#45;&gt;newfile -->
<g id="edge24" class="edge">
<title>sort&#45;&gt;newfile</title>
<path fill="none" stroke="#3542b2" d="M365.72,-370.87C379.98,-367.49 398.17,-363.32 414.44,-360 503.36,-341.83 526.25,-340.8 615.44,-324 628.39,-321.56 642.43,-318.82 655.33,-316.27"/>
<polygon fill="#3542b2" stroke="#3542b2" points="655.71,-319.77 664.83,-314.39 654.34,-312.9 655.71,-319.77"/>
</g>
<!-- sort&#45;&gt;fclose -->
<g id="edge25" class="edge">
<title>sort&#45;&gt;fclose</title>
<path fill="none" stroke="#3542b2" d="M342.66,-359.7C343.61,-352.32 344.74,-343.52 345.81,-335.25"/>
<polygon fill="#3542b2" stroke="#3542b2" points="349.24,-335.97 347.05,-325.61 342.3,-335.08 349.24,-335.97"/>
</g>
<!-- sort&#45;&gt;setbuf -->
<g id="edge26" class="edge">
<title>sort&#45;&gt;setbuf</title>
<path fill="none" stroke="#3542b2" d="M314.31,-372.97C267.1,-365.41 164.7,-347.69 80.44,-324 77.31,-323.12 74.08,-322.13 70.86,-321.09"/>
<polygon fill="#3542b2" stroke="#3542b2" points="72.09,-317.81 61.49,-317.88 69.82,-324.43 72.09,-317.81"/>
</g>
<!-- msort -->
<g id="node23" class="node">
<title>msort</title>
<ellipse fill="none" stroke="#b9d9ff" cx="266.44" cy="-306" rx="32.41" ry="18"/>
<text text-anchor="middle" x="266.44" y="-300.95" font-family="Times,serif" font-size="14.00">msort</text>
</g>
<!-- sort&#45;&gt;msort -->
<g id="edge22" class="edge">
<title>sort&#45;&gt;msort</title>
<path fill="none" stroke="#3459b6" d="M325.46,-362.83C315.5,-353.41 302.19,-340.82 290.73,-329.98"/>
<polygon fill="#3459b6" stroke="#3459b6" points="293.18,-327.48 283.51,-323.15 288.37,-332.57 293.18,-327.48"/>
</g>
<!-- filbuf -->
<g id="node24" class="node">
<title>filbuf</title>
<ellipse fill="none" stroke="#c8d1ff" cx="100.44" cy="-234" rx="31.39" ry="18"/>
<text text-anchor="middle" x="100.44" y="-228.95" font-family="Times,serif" font-size="14.00">filbuf</text>
</g>
<!-- sort&#45;&gt;filbuf -->
<g id="edge23" class="edge">
<title>sort&#45;&gt;filbuf</title>
<path fill="none" stroke="#3542b2" d="M313.71,-374.49C259.69,-368.83 140.34,-353.28 113.44,-324 98.65,-307.91 96.15,-282.81 96.91,-263.37"/>
<polygon fill="#3542b2" stroke="#3542b2" points="100.39,-263.86 97.62,-253.63 93.41,-263.35 100.39,-263.86"/>
</g>
<!-- setfil -->
<g id="node25" class="node">
<title>setfil</title>
<ellipse fill="none" stroke="#ccd1ff" cx="768.44" cy="-234" rx="29.34" ry="18"/>
<text text-anchor="middle" x="768.44" y="-228.95" font-family="Times,serif" font-size="14.00">setfil</text>
</g>
<!-- sort&#45;&gt;setfil -->
<g id="edge27" class="edge">
<title>sort&#45;&gt;setfil</title>
<path fill="none" stroke="#3542b2" d="M361.19,-366.08C397.28,-347.49 474.4,-309.64 543.44,-288 622.54,-263.21 646.99,-275.66 726.44,-252 729.14,-251.19 731.91,-250.28 734.68,-249.31"/>
<polygon fill="#3542b2" stroke="#3542b2" points="735.64,-252.68 743.76,-245.87 733.17,-246.14 735.64,-252.68"/>
</g>
<!-- merge&#45;&gt;unlink -->
<g id="edge36" class="edge">
<title>merge&#45;&gt;unlink</title>
<path fill="none" stroke="#3542b2" d="M491.06,-373.52C550.51,-366.94 677.78,-350.84 782.44,-324 785.76,-323.15 789.17,-322.17 792.57,-321.11"/>
<polygon fill="#3542b2" stroke="#3542b2" points="793.45,-324.51 801.85,-318.04 791.25,-317.86 793.45,-324.51"/>
</g>
<!-- merge&#45;&gt;fclose -->
<g id="edge38" class="edge">
<title>merge&#45;&gt;fclose</title>
<path fill="none" stroke="#3542b2" d="M436.36,-363.34C420.2,-352.86 397.68,-338.27 379.61,-326.56"/>
<polygon fill="#3542b2" stroke="#3542b2" points="381.66,-323.72 371.37,-321.21 377.86,-329.59 381.66,-323.72"/>
</g>
<!-- merge&#45;&gt;setbuf -->
<g id="edge41" class="edge">
<title>merge&#45;&gt;setbuf</title>
<path fill="none" stroke="#3542b2" d="M426.38,-369.94C411.35,-366.67 393,-362.87 376.44,-360 260.19,-339.87 229.66,-344.28 113.44,-324 100.8,-321.8 87.12,-319.03 74.71,-316.37"/>
<polygon fill="#3542b2" stroke="#3542b2" points="75.72,-313.01 65.21,-314.31 74.23,-319.85 75.72,-313.01"/>
</g>
<!-- merge&#45;&gt;setfil -->
<g id="edge39" class="edge">
<title>merge&#45;&gt;setfil</title>
<path fill="none" stroke="#3542b2" d="M491.8,-375.44C560.89,-371.58 713.14,-359.19 749.44,-324 765.31,-308.61 769.51,-283.44 770.05,-263.8"/>
<polygon fill="#3542b2" stroke="#3542b2" points="773.55,-263.9 770,-253.92 766.55,-263.94 773.55,-263.9"/>
</g>
<!-- insert -->
<g id="node27" class="node">
<title>insert</title>
<ellipse fill="none" stroke="#ccd1ff" cx="526.44" cy="-234" rx="31.39" ry="18"/>
<text text-anchor="middle" x="526.44" y="-228.95" font-family="Times,serif" font-size="14.00">insert</text>
</g>
<!-- merge&#45;&gt;insert -->
<g id="edge33" class="edge">
<title>merge&#45;&gt;insert</title>
<path fill="none" stroke="#3542b2" d="M457.25,-359.61C457.74,-340.9 460.55,-310.78 472.44,-288 478.76,-275.87 488.88,-264.84 498.65,-256.02"/>
<polygon fill="#3542b2" stroke="#3542b2" points="500.91,-258.7 506.26,-249.56 496.37,-253.37 500.91,-258.7"/>
</g>
<!-- wline -->
<g id="node28" class="node">
<title>wline</title>
<ellipse fill="none" stroke="#d7ff3e" cx="187.44" cy="-234" rx="31.39" ry="18"/>
<text text-anchor="middle" x="187.44" y="-228.95" font-family="Times,serif" font-size="14.00">wline</text>
</g>
<!-- merge&#45;&gt;wline -->
<g id="edge35" class="edge">
<title>merge&#45;&gt;wline</title>
<path fill="none" stroke="#3542b2" d="M425.82,-370.17C363.25,-356.59 229.32,-327.24 225.44,-324 207.2,-308.76 197.52,-283.2 192.5,-263.36"/>
<polygon fill="#3542b2" stroke="#3542b2" points="195.93,-262.66 190.33,-253.66 189.1,-264.18 195.93,-262.66"/>
</g>
<!-- cmpsave -->
<g id="node30" class="node">
<title>cmpsave</title>
<ellipse fill="none" stroke="#ccd1ff" cx="395.44" cy="-234" rx="43.67" ry="18"/>
<text text-anchor="middle" x="395.44" y="-228.95" font-family="Times,serif" font-size="14.00">cmpsave</text>
</g>
<!-- merge&#45;&gt;cmpsave -->
<g id="edge42" class="edge">
<title>merge&#45;&gt;cmpsave</title>
<path fill="none" stroke="#3542b2" d="M450.08,-360.15C439.5,-335.92 419.87,-290.96 407.25,-262.05"/>
<polygon fill="#3542b2" stroke="#3542b2" points="410.6,-260.98 403.39,-253.21 404.18,-263.78 410.6,-260.98"/>
</g>
<!-- rline -->
<g id="node31" class="node">
<title>rline</title>
<ellipse fill="none" stroke="#6fff82" cx="150.44" cy="-306" rx="27.81" ry="18"/>
<text text-anchor="middle" x="150.44" y="-300.95" font-family="Times,serif" font-size="14.00">rline</text>
</g>
<!-- merge&#45;&gt;rline -->
<g id="edge34" class="edge">
<title>merge&#45;&gt;rline</title>
<path fill="none" stroke="#3542b2" d="M425.92,-370.28C410.94,-367.11 392.77,-363.31 376.44,-360 294.77,-343.44 272.31,-347.74 192.44,-324 189.5,-323.13 186.48,-322.13 183.48,-321.06"/>
<polygon fill="#3542b2" stroke="#3542b2" points="184.83,-317.82 174.24,-317.52 182.33,-324.36 184.83,-317.82"/>
</g>
<!-- fopen -->
<g id="node32" class="node">
<title>fopen</title>
<ellipse fill="none" stroke="#ccd1ff" cx="685.44" cy="-234" rx="31.9" ry="18"/>
<text text-anchor="middle" x="685.44" y="-228.95" font-family="Times,serif" font-size="14.00">fopen</text>
</g>
<!-- merge&#45;&gt;fopen -->
<g id="edge37" class="edge">
<title>merge&#45;&gt;fopen</title>
<path fill="none" stroke="#3542b2" d="M469.37,-360.66C484.56,-340.93 512.55,-307.9 543.44,-288 583.5,-262.18 599.97,-269.13 644.44,-252 646.22,-251.31 648.04,-250.6 649.87,-249.88"/>
<polygon fill="#3542b2" stroke="#3542b2" points="651.01,-253.19 658.96,-246.2 648.38,-246.7 651.01,-253.19"/>
</g>
<!-- mul -->
<g id="node33" class="node">
<title>mul</title>
<ellipse fill="none" stroke="#ccd1ff" cx="579.44" cy="-306" rx="27" ry="18"/>
<text text-anchor="middle" x="579.44" y="-300.95" font-family="Times,serif" font-size="14.00">mul</text>
</g>
<!-- merge&#45;&gt;mul -->
<g id="edge40" class="edge">
<title>merge&#45;&gt;mul</title>
<path fill="none" stroke="#3542b2" d="M480.1,-364C499.64,-352.78 528.01,-336.51 549.44,-324.21"/>
<polygon fill="#3542b2" stroke="#3542b2" points="551.08,-327.31 558.01,-319.29 547.6,-321.23 551.08,-327.31"/>
</g>
<!-- term&#45;&gt;signal -->
<g id="edge51" class="edge">
<title>term&#45;&gt;signal</title>
<path fill="none" stroke="#3542b2" d="M856.19,-366.19C861.42,-363.89 867.05,-361.66 872.44,-360 958.84,-333.29 1063.99,-318.34 1121.91,-311.54"/>
<polygon fill="#3542b2" stroke="#3542b2" points="1122.14,-315.04 1131.68,-310.43 1121.35,-308.08 1122.14,-315.04"/>
</g>
<!-- term&#45;&gt;unlink -->
<g id="edge50" class="edge">
<title>term&#45;&gt;unlink</title>
<path fill="none" stroke="#3542b2" d="M833.45,-359.7C833.03,-352.41 832.54,-343.73 832.07,-335.54"/>
<polygon fill="#3542b2" stroke="#3542b2" points="835.57,-335.4 831.5,-325.62 828.58,-335.8 835.57,-335.4"/>
</g>
<!-- term&#45;&gt;setfil -->
<g id="edge52" class="edge">
<title>term&#45;&gt;setfil</title>
<path fill="none" stroke="#3542b2" d="M856.84,-366.67C888.89,-351.83 944.15,-326.05 945.44,-324 953.97,-310.47 954.99,-300.83 945.44,-288 929.02,-265.94 855.19,-249.65 808.22,-241.3"/>
<polygon fill="#3542b2" stroke="#3542b2" points="808.85,-237.86 798.4,-239.61 807.66,-244.76 808.85,-237.86"/>
</g>
<!-- exit -->
<g id="node39" class="node">
<title>exit</title>
<ellipse fill="none" stroke="#ccd1ff" cx="909.44" cy="-306" rx="27" ry="18"/>
<text text-anchor="middle" x="909.44" y="-300.95" font-family="Times,serif" font-size="14.00">exit</text>
</g>
<!-- term&#45;&gt;exit -->
<g id="edge53" class="edge">
<title>term&#45;&gt;exit</title>
<path fill="none" stroke="#3542b2" d="M849.98,-362.5C860.41,-352.76 874.33,-339.77 886.08,-328.8"/>
<polygon fill="#3542b2" stroke="#3542b2" points="888.15,-331.66 893.07,-322.28 883.37,-326.54 888.15,-331.66"/>
</g>
<!-- sigvec -->
<g id="node53" class="node">
<title>sigvec</title>
<ellipse fill="none" stroke="#ccd1ff" cx="1165.44" cy="-234" rx="34.46" ry="18"/>
<text text-anchor="middle" x="1165.44" y="-228.95" font-family="Times,serif" font-size="14.00">sigvec</text>
</g>
<!-- signal&#45;&gt;sigvec -->
<g id="edge72" class="edge">
<title>signal&#45;&gt;sigvec</title>
<path fill="none" stroke="#3542b2" d="M1165.44,-287.7C1165.44,-280.41 1165.44,-271.73 1165.44,-263.54"/>
<polygon fill="#3542b2" stroke="#3542b2" points="1168.94,-263.62 1165.44,-253.62 1161.94,-263.62 1168.94,-263.62"/>
</g>
<!-- newfile&#45;&gt;setfil -->
<g id="edge58" class="edge">
<title>newfile&#45;&gt;setfil</title>
<path fill="none" stroke="#3542b2" d="M716.64,-289.12C725.45,-279.91 736.69,-268.17 746.45,-257.97"/>
<polygon fill="#3542b2" stroke="#3542b2" points="748.78,-260.6 753.16,-250.96 743.72,-255.76 748.78,-260.6"/>
</g>
<!-- newfile&#45;&gt;fopen -->
<g id="edge57" class="edge">
<title>newfile&#45;&gt;fopen</title>
<path fill="none" stroke="#344db4" d="M697.48,-287.7C695.8,-280.32 693.79,-271.52 691.9,-263.25"/>
<polygon fill="#344db4" stroke="#344db4" points="695.33,-262.55 689.68,-253.58 688.5,-264.11 695.33,-262.55"/>
</g>
<!-- fclose&#45;&gt;close -->
<g id="edge60" class="edge">
<title>fclose&#45;&gt;close</title>
<path fill="none" stroke="#3542b2" d="M380.46,-299.17C423,-290.78 501.58,-273.88 566.44,-252 568.27,-251.38 570.13,-250.72 572,-250.01"/>
<polygon fill="#3542b2" stroke="#3542b2" points="573.23,-253.29 581.19,-246.3 570.61,-246.8 573.23,-253.29"/>
</g>
<!-- fflush -->
<g id="node43" class="node">
<title>fflush</title>
<ellipse fill="none" stroke="#ccd1ff" cx="359.44" cy="-162" rx="32.41" ry="18"/>
<text text-anchor="middle" x="359.44" y="-156.95" font-family="Times,serif" font-size="14.00">fflush</text>
</g>
<!-- fclose&#45;&gt;fflush -->
<g id="edge59" class="edge">
<title>fclose&#45;&gt;fflush</title>
<path fill="none" stroke="#3547b3" d="M379.04,-298.02C402.42,-290.79 433.51,-276.92 448.44,-252 456.66,-238.27 456.34,-229.91 448.44,-216 437.54,-196.83 416.67,-183.86 397.87,-175.56"/>
<polygon fill="#3547b3" stroke="#3547b3" points="399.41,-172.41 388.83,-171.87 396.77,-178.89 399.41,-172.41"/>
</g>
<!-- doprnt -->
<g id="node56" class="node">
<title>doprnt</title>
<ellipse fill="none" stroke="#ccd1ff" cx="1427.44" cy="-306" rx="34.97" ry="18"/>
<text text-anchor="middle" x="1427.44" y="-300.95" font-family="Times,serif" font-size="14.00">doprnt</text>
</g>
<!-- sprintf&#45;&gt;doprnt -->
<g id="edge84" class="edge">
<title>sprintf&#45;&gt;doprnt</title>
<path fill="none" stroke="#3542b2" d="M1427.44,-359.7C1427.44,-352.41 1427.44,-343.73 1427.44,-335.54"/>
<polygon fill="#3542b2" stroke="#3542b2" points="1430.94,-335.62 1427.44,-325.62 1423.94,-335.62 1430.94,-335.62"/>
</g>
<!-- qsort -->
<g id="node26" class="node">
<title>qsort</title>
<ellipse fill="none" stroke="#8dffdc" cx="266.44" cy="-234" rx="29.34" ry="18"/>
<text text-anchor="middle" x="266.44" y="-228.95" font-family="Times,serif" font-size="14.00">qsort</text>
</g>
<!-- msort&#45;&gt;qsort -->
<g id="edge28" class="edge">
<title>msort&#45;&gt;qsort</title>
<path fill="none" stroke="#3542b2" d="M266.44,-287.7C266.44,-280.41 266.44,-271.73 266.44,-263.54"/>
<polygon fill="#3542b2" stroke="#3542b2" points="269.94,-263.62 266.44,-253.62 262.94,-263.62 269.94,-263.62"/>
</g>
<!-- msort&#45;&gt;insert -->
<g id="edge29" class="edge">
<title>msort&#45;&gt;insert</title>
<path fill="none" stroke="#3542b2" d="M291.36,-293.94C296.61,-291.82 302.16,-289.72 307.44,-288 340.35,-277.27 432.46,-256.04 486.16,-243.96"/>
<polygon fill="#3542b2" stroke="#3542b2" points="486.85,-247.39 495.84,-241.79 485.32,-240.56 486.85,-247.39"/>
</g>
<!-- msort&#45;&gt;wline -->
<g id="edge30" class="edge">
<title>msort&#45;&gt;wline</title>
<path fill="none" stroke="#3542b2" d="M249.68,-290.15C238.82,-280.53 224.48,-267.82 212.3,-257.03"/>
<polygon fill="#3542b2" stroke="#3542b2" points="214.84,-254.6 205.03,-250.59 210.19,-259.84 214.84,-254.6"/>
</g>
<!-- div -->
<g id="node29" class="node">
<title>div</title>
<ellipse fill="none" stroke="#ccd1ff" cx="768.44" cy="-162" rx="27" ry="18"/>
<text text-anchor="middle" x="768.44" y="-156.95" font-family="Times,serif" font-size="14.00">div</text>
</g>
<!-- msort&#45;&gt;div -->
<g id="edge31" class="edge">
<title>msort&#45;&gt;div</title>
<path fill="none" stroke="#3542b2" d="M277.98,-288.74C294.88,-265.45 326.11,-224.46 342.44,-216 497,-135.92 564.52,-225.86 732.44,-180 734.06,-179.56 735.71,-179.04 737.35,-178.48"/>
<polygon fill="#3542b2" stroke="#3542b2" points="738.62,-181.74 746.57,-174.74 735.99,-175.25 738.62,-181.74"/>
</g>
<!-- msort&#45;&gt;cmpsave -->
<g id="edge32" class="edge">
<title>msort&#45;&gt;cmpsave</title>
<path fill="none" stroke="#3542b2" d="M289.2,-292.65C308.77,-282.03 337.33,-266.53 359.9,-254.28"/>
<polygon fill="#3542b2" stroke="#3542b2" points="361.35,-257.48 368.47,-249.63 358.01,-251.33 361.35,-257.48"/>
</g>
<!-- read -->
<g id="node38" class="node">
<title>read</title>
<ellipse fill="none" stroke="#b5dcff" cx="100.44" cy="-162" rx="27" ry="18"/>
<text text-anchor="middle" x="100.44" y="-156.95" font-family="Times,serif" font-size="14.00">read</text>
</g>
<!-- filbuf&#45;&gt;read -->
<g id="edge49" class="edge">
<title>filbuf&#45;&gt;read</title>
<path fill="none" stroke="#3542b2" d="M100.44,-215.7C100.44,-208.41 100.44,-199.73 100.44,-191.54"/>
<polygon fill="#3542b2" stroke="#3542b2" points="103.94,-191.62 100.44,-181.62 96.94,-191.62 103.94,-191.62"/>
</g>
<!-- setfil&#45;&gt;rem -->
<g id="edge77" class="edge">
<title>setfil&#45;&gt;rem</title>
<path fill="none" stroke="#3542b2" d="M797.15,-229.56C846.29,-223.17 949.23,-207.54 1032.44,-180 1034,-179.48 1035.58,-178.92 1037.16,-178.31"/>
<polygon fill="#3542b2" stroke="#3542b2" points="1038.23,-181.66 1046.08,-174.54 1035.5,-175.21 1038.23,-181.66"/>
</g>
<!-- setfil&#45;&gt;div -->
<g id="edge76" class="edge">
<title>setfil&#45;&gt;div</title>
<path fill="none" stroke="#3542b2" d="M768.44,-215.7C768.44,-208.41 768.44,-199.73 768.44,-191.54"/>
<polygon fill="#3542b2" stroke="#3542b2" points="771.94,-191.62 768.44,-181.62 764.94,-191.62 771.94,-191.62"/>
</g>
<!-- cmpa -->
<g id="node34" class="node">
<title>cmpa</title>
<ellipse fill="none" stroke="#ff0000" cx="477.44" cy="-162" rx="31.39" ry="18"/>
<text text-anchor="middle" x="477.44" y="-156.95" font-family="Times,serif" font-size="14.00">cmpa</text>
</g>
<!-- qsort&#45;&gt;cmpa -->
<g id="edge45" class="edge">
<title>qsort&#45;&gt;cmpa</title>
<path fill="none" stroke="#3542b2" d="M290.43,-223.17C296.59,-220.74 303.23,-218.2 309.44,-216 353.46,-200.38 404.75,-184.53 438.97,-174.29"/>
<polygon fill="#3542b2" stroke="#3542b2" points="439.85,-177.68 448.44,-171.47 437.85,-170.97 439.85,-177.68"/>
</g>
<!-- insert&#45;&gt;cmpa -->
<g id="edge43" class="edge">
<title>insert&#45;&gt;cmpa</title>
<path fill="none" stroke="#3542b2" d="M515.07,-216.76C509.2,-208.37 501.89,-197.93 495.28,-188.5"/>
<polygon fill="#3542b2" stroke="#3542b2" points="498.21,-186.57 489.61,-180.39 492.48,-190.59 498.21,-186.57"/>
</g>
<!-- getfreehdr -->
<g id="node47" class="node">
<title>getfreehdr</title>
<ellipse fill="none" stroke="#ccd1ff" cx="974.44" cy="-162" rx="48.79" ry="18"/>
<text text-anchor="middle" x="974.44" y="-156.95" font-family="Times,serif" font-size="14.00">getfreehdr</text>
</g>
<!-- insert&#45;&gt;getfreehdr -->
<g id="edge75" class="edge">
<title>insert&#45;&gt;getfreehdr</title>
<path fill="none" stroke="#3542b2" d="M550.17,-221.66C555.43,-219.5 561.05,-217.47 566.44,-216 631.02,-198.44 819.65,-178.19 916.13,-168.6"/>
<polygon fill="#3542b2" stroke="#3542b2" points="916.31,-172.1 925.92,-167.63 915.63,-165.13 916.31,-172.1"/>
</g>
<!-- flsbuf -->
<g id="node35" class="node">
<title>flsbuf</title>
<ellipse fill="none" stroke="#ccd1ff" cx="205.44" cy="-162" rx="32.41" ry="18"/>
<text text-anchor="middle" x="205.44" y="-156.95" font-family="Times,serif" font-size="14.00">flsbuf</text>
</g>
<!-- wline&#45;&gt;flsbuf -->
<g id="edge44" class="edge">
<title>wline&#45;&gt;flsbuf</title>
<path fill="none" stroke="#3542b2" d="M191.89,-215.7C193.78,-208.32 196.05,-199.52 198.17,-191.25"/>
<polygon fill="#3542b2" stroke="#3542b2" points="201.56,-192.13 200.66,-181.57 194.78,-190.38 201.56,-192.13"/>
</g>
<!-- rline&#45;&gt;filbuf -->
<g id="edge46" class="edge">
<title>rline&#45;&gt;filbuf</title>
<path fill="none" stroke="#3542b2" d="M139.09,-289.12C132.96,-280.52 125.23,-269.72 118.31,-260.02"/>
<polygon fill="#3542b2" stroke="#3542b2" points="121.28,-258.16 112.62,-252.05 115.58,-262.22 121.28,-258.16"/>
</g>
<!-- endopen -->
<g id="node40" class="node">
<title>endopen</title>
<ellipse fill="none" stroke="#ccd1ff" cx="587.44" cy="-162" rx="42.14" ry="18"/>
<text text-anchor="middle" x="587.44" y="-156.95" font-family="Times,serif" font-size="14.00">endopen</text>
</g>
<!-- fopen&#45;&gt;endopen -->
<g id="edge55" class="edge">
<title>fopen&#45;&gt;endopen</title>
<path fill="none" stroke="#354ab3" d="M666.08,-219.17C652.31,-209.34 633.55,-195.93 617.8,-184.69"/>
<polygon fill="#354ab3" stroke="#354ab3" points="619.86,-181.86 609.69,-178.89 615.79,-187.55 619.86,-181.86"/>
</g>
<!-- findiop -->
<g id="node42" class="node">
<title>findiop</title>
<ellipse fill="none" stroke="#ccd1ff" cx="685.44" cy="-162" rx="37.53" ry="18"/>
<text text-anchor="middle" x="685.44" y="-156.95" font-family="Times,serif" font-size="14.00">findiop</text>
</g>
<!-- fopen&#45;&gt;findiop -->
<g id="edge56" class="edge">
<title>fopen&#45;&gt;findiop</title>
<path fill="none" stroke="#3542b2" d="M685.44,-215.7C685.44,-208.41 685.44,-199.73 685.44,-191.54"/>
<polygon fill="#3542b2" stroke="#3542b2" points="688.94,-191.62 685.44,-181.62 681.94,-191.62 688.94,-191.62"/>
</g>
<!-- xflsbuf -->
<g id="node36" class="node">
<title>xflsbuf</title>
<ellipse fill="none" stroke="#ccd1ff" cx="282.44" cy="-90" rx="37.02" ry="18"/>
<text text-anchor="middle" x="282.44" y="-84.95" font-family="Times,serif" font-size="14.00">xflsbuf</text>
</g>
<!-- flsbuf&#45;&gt;xflsbuf -->
<g id="edge48" class="edge">
<title>flsbuf&#45;&gt;xflsbuf</title>
<path fill="none" stroke="#3542b2" d="M221.77,-146.15C232.04,-136.82 245.51,-124.57 257.14,-114"/>
<polygon fill="#3542b2" stroke="#3542b2" points="259.43,-116.64 264.48,-107.33 254.73,-111.46 259.43,-116.64"/>
</g>
<!-- write -->
<g id="node37" class="node">
<title>write</title>
<ellipse fill="none" stroke="#9cfffe" cx="282.44" cy="-18" rx="29.86" ry="18"/>
<text text-anchor="middle" x="282.44" y="-12.95" font-family="Times,serif" font-size="14.00">write</text>
</g>
<!-- xflsbuf&#45;&gt;write -->
<g id="edge47" class="edge">
<title>xflsbuf&#45;&gt;write</title>
<path fill="none" stroke="#3542b2" d="M282.44,-71.7C282.44,-64.41 282.44,-55.73 282.44,-47.54"/>
<polygon fill="#3542b2" stroke="#3542b2" points="285.94,-47.62 282.44,-37.62 278.94,-47.62 285.94,-47.62"/>
</g>
<!-- open -->
<g id="node41" class="node">
<title>open</title>
<ellipse fill="none" stroke="#c8d1ff" cx="587.44" cy="-90" rx="28.83" ry="18"/>
<text text-anchor="middle" x="587.44" y="-84.95" font-family="Times,serif" font-size="14.00">open</text>
</g>
<!-- endopen&#45;&gt;open -->
<g id="edge54" class="edge">
<title>endopen&#45;&gt;open</title>
<path fill="none" stroke="#3542b2" d="M587.44,-143.7C587.44,-136.41 587.44,-127.73 587.44,-119.54"/>
<polygon fill="#3542b2" stroke="#3542b2" points="590.94,-119.62 587.44,-109.62 583.94,-119.62 590.94,-119.62"/>
</g>
<!-- fflush&#45;&gt;xflsbuf -->
<g id="edge61" class="edge">
<title>fflush&#45;&gt;xflsbuf</title>
<path fill="none" stroke="#344db4" d="M343.11,-146.15C332.84,-136.82 319.37,-124.57 307.73,-114"/>
<polygon fill="#344db4" stroke="#344db4" points="310.15,-111.46 300.4,-107.33 305.44,-116.64 310.15,-111.46"/>
</g>
<!-- morecore -->
<g id="node45" class="node">
<title>morecore</title>
<ellipse fill="none" stroke="#ccd1ff" cx="1691.44" cy="-378" rx="46.23" ry="18"/>
<text text-anchor="middle" x="1691.44" y="-372.95" font-family="Times,serif" font-size="14.00">morecore</text>
</g>
<!-- malloc&#45;&gt;morecore -->
<g id="edge62" class="edge">
<title>malloc&#45;&gt;morecore</title>
<path fill="none" stroke="#29d820" d="M1691.44,-431.7C1691.44,-424.41 1691.44,-415.73 1691.44,-407.54"/>
<polygon fill="#29d820" stroke="#29d820" points="1694.94,-407.62 1691.44,-397.62 1687.94,-407.62 1694.94,-407.62"/>
</g>
<!-- demote -->
<g id="node46" class="node">
<title>demote</title>
<ellipse fill="none" stroke="#ccd1ff" cx="1794.44" cy="-378" rx="38.56" ry="18"/>
<text text-anchor="middle" x="1794.44" y="-372.95" font-family="Times,serif" font-size="14.00">demote</text>
</g>
<!-- malloc&#45;&gt;demote -->
<g id="edge63" class="edge">
<title>malloc&#45;&gt;demote</title>
<path fill="none" stroke="#3542b2" d="M1712.28,-434.83C1727.12,-424.75 1747.3,-411.03 1763.95,-399.72"/>
<polygon fill="#3542b2" stroke="#3542b2" points="1765.72,-402.75 1772.02,-394.24 1761.78,-396.96 1765.72,-402.75"/>
</g>
<!-- morecore&#45;&gt;sbrk -->
<g id="edge64" class="edge">
<title>morecore&#45;&gt;sbrk</title>
<path fill="none" stroke="#3542b2" d="M1690.67,-359.62C1688.76,-320.73 1682.82,-223.81 1668.44,-144 1666.96,-135.82 1664.87,-127.05 1662.74,-119.05"/>
<polygon fill="#3542b2" stroke="#3542b2" points="1666.13,-118.19 1660.08,-109.49 1659.39,-120.06 1666.13,-118.19"/>
</g>
<!-- morecore&#45;&gt;getfreehdr -->
<g id="edge65" class="edge">
<title>morecore&#45;&gt;getfreehdr</title>
<path fill="none" stroke="#3542b2" d="M1687.19,-359.84C1677.71,-325.6 1651.28,-249.23 1597.44,-216 1490.38,-149.92 1156.34,-201.83 1032.44,-180 1028.65,-179.33 1024.77,-178.51 1020.88,-177.59"/>
<polygon fill="#3542b2" stroke="#3542b2" points="1022.06,-174.28 1011.5,-175.16 1020.3,-181.05 1022.06,-174.28"/>
</g>
<!-- free -->
<g id="node48" class="node">
<title>free</title>
<ellipse fill="none" stroke="#ccd1ff" cx="1295.44" cy="-306" rx="27" ry="18"/>
<text text-anchor="middle" x="1295.44" y="-300.95" font-family="Times,serif" font-size="14.00">free</text>
</g>
<!-- morecore&#45;&gt;free -->
<g id="edge66" class="edge">
<title>morecore&#45;&gt;free</title>
<path fill="none" stroke="#3542b2" d="M1649.29,-370.03C1589.93,-360.14 1478.31,-341.33 1383.44,-324 1366.56,-320.92 1347.9,-317.34 1332.12,-314.26"/>
<polygon fill="#3542b2" stroke="#3542b2" points="1333.18,-310.9 1322.7,-312.41 1331.84,-317.77 1333.18,-310.9"/>
</g>
<!-- getpagesize -->
<g id="node49" class="node">
<title>getpagesize</title>
<ellipse fill="none" stroke="#ccd1ff" cx="1774.44" cy="-306" rx="53.91" ry="18"/>
<text text-anchor="middle" x="1774.44" y="-300.95" font-family="Times,serif" font-size="14.00">getpagesize</text>
</g>
<!-- morecore&#45;&gt;getpagesize -->
<g id="edge67" class="edge">
<title>morecore&#45;&gt;getpagesize</title>
<path fill="none" stroke="#3542b2" d="M1710.27,-361.12C1721.02,-352.05 1734.69,-340.52 1746.66,-330.43"/>
<polygon fill="#3542b2" stroke="#3542b2" points="1748.85,-333.16 1754.23,-324.04 1744.33,-327.81 1748.85,-333.16"/>
</g>
<!-- putfreehdr -->
<g id="node50" class="node">
<title>putfreehdr</title>
<ellipse fill="none" stroke="#ccd1ff" cx="1895.44" cy="-306" rx="49.3" ry="18"/>
<text text-anchor="middle" x="1895.44" y="-300.95" font-family="Times,serif" font-size="14.00">putfreehdr</text>
</g>
<!-- morecore&#45;&gt;putfreehdr -->
<g id="edge68" class="edge">
<title>morecore&#45;&gt;putfreehdr</title>
<path fill="none" stroke="#3542b2" d="M1725.12,-365.44C1759.11,-353.78 1811.84,-335.69 1849.61,-322.72"/>
<polygon fill="#3542b2" stroke="#3542b2" points="1850.58,-326.09 1858.9,-319.54 1848.31,-319.47 1850.58,-326.09"/>
</g>
<!-- udiv -->
<g id="node51" class="node">
<title>udiv</title>
<ellipse fill="none" stroke="#ccd1ff" cx="1561.44" cy="-234" rx="27.3" ry="18"/>
<text text-anchor="middle" x="1561.44" y="-228.95" font-family="Times,serif" font-size="14.00">udiv</text>
</g>
<!-- morecore&#45;&gt;udiv -->
<g id="edge69" class="edge">
<title>morecore&#45;&gt;udiv</title>
<path fill="none" stroke="#3542b2" d="M1675.64,-360.92C1665.48,-350.5 1652.05,-336.57 1640.44,-324 1620.07,-301.96 1597.39,-276.29 1581.57,-258.19"/>
<polygon fill="#3542b2" stroke="#3542b2" points="1584.6,-256.34 1575.39,-251.11 1579.33,-260.94 1584.6,-256.34"/>
</g>
<!-- umul -->
<g id="node52" class="node">
<title>umul</title>
<ellipse fill="none" stroke="#ccd1ff" cx="1993.44" cy="-306" rx="30.37" ry="18"/>
<text text-anchor="middle" x="1993.44" y="-300.95" font-family="Times,serif" font-size="14.00">umul</text>
</g>
<!-- morecore&#45;&gt;umul -->
<g id="edge70" class="edge">
<title>morecore&#45;&gt;umul</title>
<path fill="none" stroke="#3542b2" d="M1725.87,-365.62C1732.65,-363.59 1739.73,-361.61 1746.44,-360 1837.23,-338.17 1863.88,-350.44 1953.44,-324 1955.41,-323.42 1957.42,-322.76 1959.44,-322.06"/>
<polygon fill="#3542b2" stroke="#3542b2" points="1960.58,-325.38 1968.67,-318.53 1958.07,-318.84 1960.58,-325.38"/>
</g>
<!-- getfreehdr&#45;&gt;sbrk -->
<g id="edge73" class="edge">
<title>getfreehdr&#45;&gt;sbrk</title>
<path fill="none" stroke="#3542b2" d="M1010.06,-149.35C1017.39,-147.29 1025.12,-145.37 1032.44,-144 1250.51,-103.18 1517.55,-93.75 1615.8,-91.61"/>
<polygon fill="#3542b2" stroke="#3542b2" points="1615.76,-95.12 1625.69,-91.41 1615.62,-88.12 1615.76,-95.12"/>
</g>
<!-- free&#45;&gt;insert -->
<g id="edge74" class="edge">
<title>free&#45;&gt;insert</title>
<path fill="none" stroke="#3542b2" d="M1270.17,-299.18C1252.65,-295.38 1228.75,-290.64 1207.44,-288 924.27,-252.86 844.33,-316.77 566.44,-252 564.43,-251.53 562.4,-250.97 560.36,-250.34"/>
<polygon fill="#3542b2" stroke="#3542b2" points="561.69,-247.1 551.09,-246.98 559.3,-253.68 561.69,-247.1"/>
</g>
<!-- sigblock -->
<g id="node54" class="node">
<title>sigblock</title>
<ellipse fill="none" stroke="#ccd1ff" cx="1277.44" cy="-162" rx="42.14" ry="18"/>
<text text-anchor="middle" x="1277.44" y="-156.95" font-family="Times,serif" font-size="14.00">sigblock</text>
</g>
<!-- sigvec&#45;&gt;sigblock -->
<g id="edge78" class="edge">
<title>sigvec&#45;&gt;sigblock</title>
<path fill="none" stroke="#3542b2" d="M1187.03,-219.5C1203.41,-209.27 1226.21,-195.02 1244.81,-183.39"/>
<polygon fill="#3542b2" stroke="#3542b2" points="1246.46,-186.49 1253.08,-178.22 1242.75,-180.55 1246.46,-186.49"/>
</g>
<!-- sigsetmask -->
<g id="node55" class="node">
<title>sigsetmask</title>
<ellipse fill="none" stroke="#ccd1ff" cx="1165.44" cy="-162" rx="51.86" ry="18"/>
<text text-anchor="middle" x="1165.44" y="-156.95" font-family="Times,serif" font-size="14.00">sigsetmask</text>
</g>
<!-- sigvec&#45;&gt;sigsetmask -->
<g id="edge79" class="edge">
<title>sigvec&#45;&gt;sigsetmask</title>
<path fill="none" stroke="#3542b2" d="M1165.44,-215.7C1165.44,-208.41 1165.44,-199.73 1165.44,-191.54"/>
<polygon fill="#3542b2" stroke="#3542b2" points="1168.94,-191.62 1165.44,-181.62 1161.94,-191.62 1168.94,-191.62"/>
</g>
<!-- doprnt&#45;&gt;udiv -->
<g id="edge81" class="edge">
<title>doprnt&#45;&gt;udiv</title>
<path fill="none" stroke="#3542b2" d="M1451.39,-292.49C1473.43,-280.98 1506.23,-263.84 1530.29,-251.27"/>
<polygon fill="#3542b2" stroke="#3542b2" points="1531.75,-254.46 1538.99,-246.72 1528.51,-248.25 1531.75,-254.46"/>
</g>
<!-- urem -->
<g id="node57" class="node">
<title>urem</title>
<ellipse fill="none" stroke="#ccd1ff" cx="1448.44" cy="-234" rx="30.37" ry="18"/>
<text text-anchor="middle" x="1448.44" y="-228.95" font-family="Times,serif" font-size="14.00">urem</text>
</g>
<!-- doprnt&#45;&gt;urem -->
<g id="edge80" class="edge">
<title>doprnt&#45;&gt;urem</title>
<path fill="none" stroke="#3542b2" d="M1432.52,-288.05C1434.82,-280.4 1437.59,-271.16 1440.17,-262.56"/>
<polygon fill="#3542b2" stroke="#3542b2" points="1443.45,-263.82 1442.97,-253.24 1436.74,-261.81 1443.45,-263.82"/>
</g>
<!-- strlen -->
<g id="node58" class="node">
<title>strlen</title>
<ellipse fill="none" stroke="#ccd1ff" cx="1249.44" cy="-234" rx="31.39" ry="18"/>
<text text-anchor="middle" x="1249.44" y="-228.95" font-family="Times,serif" font-size="14.00">strlen</text>
</g>
<!-- doprnt&#45;&gt;strlen -->
<g id="edge82" class="edge">
<title>doprnt&#45;&gt;strlen</title>
<path fill="none" stroke="#3542b2" d="M1399.57,-294.63C1371.62,-284.14 1327.39,-267.35 1289.44,-252 1287.71,-251.3 1285.94,-250.58 1284.15,-249.84"/>
<polygon fill="#3542b2" stroke="#3542b2" points="1285.89,-246.77 1275.32,-246.15 1283.19,-253.23 1285.89,-246.77"/>
</g>
<!-- localeconv -->
<g id="node59" class="node">
<title>localeconv</title>
<ellipse fill="none" stroke="#ccd1ff" cx="1349.44" cy="-234" rx="50.84" ry="18"/>
<text text-anchor="middle" x="1349.44" y="-228.95" font-family="Times,serif" font-size="14.00">localeconv</text>
</g>
<!-- doprnt&#45;&gt;localeconv -->
<g id="edge83" class="edge">
<title>doprnt&#45;&gt;localeconv</title>
<path fill="none" stroke="#3542b2" d="M1410.51,-289.81C1400.37,-280.71 1387.26,-268.95 1375.79,-258.65"/>
<polygon fill="#3542b2" stroke="#3542b2" points="1378.32,-256.22 1368.54,-252.14 1373.65,-261.43 1378.32,-256.22"/>
</g>
<!-- moncontrol -->
<g id="node60" class="node">
<title>moncontrol</title>
<ellipse fill="none" stroke="#cad1ff" cx="1408.44" cy="-594" rx="53.91" ry="18"/>
<text text-anchor="middle" x="1408.44" y="-588.95" font-family="Times,serif" font-size="14.00">moncontrol</text>
</g>
<!-- profil -->
<g id="node61" class="node">
<title>profil</title>
<ellipse fill="none" stroke="#ccd1ff" cx="1511.44" cy="-594" rx="31.39" ry="18"/>
<text text-anchor="middle" x="1511.44" y="-588.95" font-family="Times,serif" font-size="14.00">profil</text>
</g>
</g>
</svg>
