<?xml version="1.0" encoding="UTF-8" standalone="no"?>
<!DOCTYPE svg PUBLIC "-//W3C//DTD SVG 1.1//EN"
 "http://www.w3.org/Graphics/SVG/1.1/DTD/svg11.dtd">
<!-- Generated by graphviz version 11.0.0~dev.20240329.2055 (20240329.2055)
 -->
<!-- Title: unix Pages: 1 -->
<svg width="992pt" height="764pt"
 viewBox="0.00 0.00 991.54 764.00" xmlns="http://www.w3.org/2000/svg" xmlns:xlink="http://www.w3.org/1999/xlink">
<g id="graph0" class="graph" transform="scale(1 1) rotate(0) translate(4 760)">
<title>unix</title>
<polygon fill="white" stroke="none" points="-4,4 -4,-760 987.54,-760 987.54,4 -4,4"/>
<!-- 5th Edition -->
<g id="node1" class="node">
<title>5th Edition</title>
<ellipse fill="none" stroke="black" cx="525.88" cy="-738" rx="52.38" ry="18"/>
<text text-anchor="middle" x="525.88" y="-732.95" font-family="Times,serif" font-size="14.00">5th Edition</text>
</g>
<!-- 6th Edition -->
<g id="node2" class="node">
<title>6th Edition</title>
<ellipse fill="none" stroke="black" cx="428.88" cy="-666" rx="52.38" ry="18"/>
<text text-anchor="middle" x="428.88" y="-660.95" font-family="Times,serif" font-size="14.00">6th Edition</text>
</g>
<!-- 5th Edition&#45;&gt;6th Edition -->
<g id="edge1" class="edge">
<title>5th Edition&#45;&gt;6th Edition</title>
<path fill="none" stroke="black" d="M504.35,-721.46C491.26,-712.02 474.32,-699.79 459.8,-689.32"/>
<polygon fill="black" stroke="black" points="462.07,-686.63 451.91,-683.62 457.97,-692.31 462.07,-686.63"/>
</g>
<!-- PWB 1.0 -->
<g id="node3" class="node">
<title>PWB 1.0</title>
<ellipse fill="none" stroke="black" cx="685.88" cy="-666" rx="45.72" ry="18"/>
<text text-anchor="middle" x="685.88" y="-660.95" font-family="Times,serif" font-size="14.00">PWB 1.0</text>
</g>
<!-- 5th Edition&#45;&gt;PWB 1.0 -->
<g id="edge2" class="edge">
<title>5th Edition&#45;&gt;PWB 1.0</title>
<path fill="none" stroke="black" d="M557.49,-723.17C582.74,-712.13 618.28,-696.58 645.57,-684.64"/>
<polygon fill="black" stroke="black" points="646.81,-687.91 654.57,-680.7 644.01,-681.5 646.81,-687.91"/>
</g>
<!-- LSX -->
<g id="node4" class="node">
<title>LSX</title>
<ellipse fill="none" stroke="black" cx="593.88" cy="-594" rx="28.32" ry="18"/>
<text text-anchor="middle" x="593.88" y="-588.95" font-family="Times,serif" font-size="14.00">LSX</text>
</g>
<!-- 6th Edition&#45;&gt;LSX -->
<g id="edge3" class="edge">
<title>6th Edition&#45;&gt;LSX</title>
<path fill="none" stroke="black" d="M461.91,-651.73C487.84,-641.21 524.81,-626 556.88,-612 558.38,-611.35 559.91,-610.67 561.45,-609.99"/>
<polygon fill="black" stroke="black" points="562.58,-613.31 570.26,-606.01 559.7,-606.93 562.58,-613.31"/>
</g>
<!-- 1 BSD -->
<g id="node5" class="node">
<title>1 BSD</title>
<ellipse fill="none" stroke="black" cx="123.88" cy="-594" rx="36" ry="18"/>
<text text-anchor="middle" x="123.88" y="-588.95" font-family="Times,serif" font-size="14.00">1 BSD</text>
</g>
<!-- 6th Edition&#45;&gt;1 BSD -->
<g id="edge4" class="edge">
<title>6th Edition&#45;&gt;1 BSD</title>
<path fill="none" stroke="black" d="M386.15,-655.19C328.2,-641.89 225.28,-618.27 167.09,-604.92"/>
<polygon fill="black" stroke="black" points="168.08,-601.55 157.55,-602.73 166.51,-608.38 168.08,-601.55"/>
</g>
<!-- Mini Unix -->
<g id="node6" class="node">
<title>Mini Unix</title>
<ellipse fill="none" stroke="black" cx="365.88" cy="-594" rx="50.33" ry="18"/>
<text text-anchor="middle" x="365.88" y="-588.95" font-family="Times,serif" font-size="14.00">Mini Unix</text>
</g>
<!-- 6th Edition&#45;&gt;Mini Unix -->
<g id="edge5" class="edge">
<title>6th Edition&#45;&gt;Mini Unix</title>
<path fill="none" stroke="black" d="M413.95,-648.41C406.26,-639.87 396.73,-629.28 388.19,-619.79"/>
<polygon fill="black" stroke="black" points="391.01,-617.69 381.71,-612.59 385.8,-622.37 391.01,-617.69"/>
</g>
<!-- Wollongong -->
<g id="node7" class="node">
<title>Wollongong</title>
<ellipse fill="none" stroke="black" cx="490.88" cy="-594" rx="56.98" ry="18"/>
<text text-anchor="middle" x="490.88" y="-588.95" font-family="Times,serif" font-size="14.00">Wollongong</text>
</g>
<!-- 6th Edition&#45;&gt;Wollongong -->
<g id="edge6" class="edge">
<title>6th Edition&#45;&gt;Wollongong</title>
<path fill="none" stroke="black" d="M443.57,-648.41C451.06,-639.95 460.33,-629.49 468.67,-620.08"/>
<polygon fill="black" stroke="black" points="471.28,-622.41 475.29,-612.6 466.04,-617.77 471.28,-622.41"/>
</g>
<!-- Interdata -->
<g id="node8" class="node">
<title>Interdata</title>
<ellipse fill="none" stroke="black" cx="253.88" cy="-594" rx="43.67" ry="18"/>
<text text-anchor="middle" x="253.88" y="-588.95" font-family="Times,serif" font-size="14.00">Interdata</text>
</g>
<!-- 6th Edition&#45;&gt;Interdata -->
<g id="edge7" class="edge">
<title>6th Edition&#45;&gt;Interdata</title>
<path fill="none" stroke="black" d="M395.55,-651.67C366.9,-640.21 325.47,-623.64 294.8,-611.37"/>
<polygon fill="black" stroke="black" points="296.44,-608.25 285.85,-607.79 293.84,-614.75 296.44,-608.25"/>
</g>
<!-- PWB 1.2 -->
<g id="node28" class="node">
<title>PWB 1.2</title>
<ellipse fill="none" stroke="black" cx="685.88" cy="-594" rx="45.72" ry="18"/>
<text text-anchor="middle" x="685.88" y="-588.95" font-family="Times,serif" font-size="14.00">PWB 1.2</text>
</g>
<!-- PWB 1.0&#45;&gt;PWB 1.2 -->
<g id="edge31" class="edge">
<title>PWB 1.0&#45;&gt;PWB 1.2</title>
<path fill="none" stroke="black" d="M685.88,-647.7C685.88,-640.41 685.88,-631.73 685.88,-623.54"/>
<polygon fill="black" stroke="black" points="689.38,-623.62 685.88,-613.62 682.38,-623.62 689.38,-623.62"/>
</g>
<!-- USG 1.0 -->
<g id="node29" class="node">
<title>USG 1.0</title>
<ellipse fill="none" stroke="black" cx="792.88" cy="-594" rx="43.67" ry="18"/>
<text text-anchor="middle" x="792.88" y="-588.95" font-family="Times,serif" font-size="14.00">USG 1.0</text>
</g>
<!-- PWB 1.0&#45;&gt;USG 1.0 -->
<g id="edge32" class="edge">
<title>PWB 1.0&#45;&gt;USG 1.0</title>
<path fill="none" stroke="black" d="M708.83,-649.98C724.03,-640.04 744.17,-626.87 760.92,-615.91"/>
<polygon fill="black" stroke="black" points="762.61,-618.98 769.06,-610.58 758.78,-613.13 762.61,-618.98"/>
</g>
<!-- 2 BSD -->
<g id="node19" class="node">
<title>2 BSD</title>
<ellipse fill="none" stroke="black" cx="78.88" cy="-234" rx="36" ry="18"/>
<text text-anchor="middle" x="78.88" y="-228.95" font-family="Times,serif" font-size="14.00">2 BSD</text>
</g>
<!-- 1 BSD&#45;&gt;2 BSD -->
<g id="edge19" class="edge">
<title>1 BSD&#45;&gt;2 BSD</title>
<path fill="none" stroke="black" d="M117.56,-576.23C108.23,-549.94 91.88,-497.25 91.88,-451 91.88,-451 91.88,-451 91.88,-377 91.88,-337.58 86.85,-292.25 83.05,-263.62"/>
<polygon fill="black" stroke="black" points="86.54,-263.37 81.72,-253.94 79.61,-264.32 86.54,-263.37"/>
</g>
<!-- Unix/TS 3.0 -->
<g id="node9" class="node">
<title>Unix/TS 3.0</title>
<ellipse fill="none" stroke="black" cx="613.88" cy="-378" rx="56.98" ry="18"/>
<text text-anchor="middle" x="613.88" y="-372.95" font-family="Times,serif" font-size="14.00">Unix/TS 3.0</text>
</g>
<!-- Interdata&#45;&gt;Unix/TS 3.0 -->
<g id="edge8" class="edge">
<title>Interdata&#45;&gt;Unix/TS 3.0</title>
<path fill="none" stroke="black" d="M278.06,-578.63C340.09,-541.75 505.13,-443.65 578.2,-400.21"/>
<polygon fill="black" stroke="black" points="579.78,-403.34 586.58,-395.23 576.2,-397.33 579.78,-403.34"/>
</g>
<!-- PWB 2.0 -->
<g id="node10" class="node">
<title>PWB 2.0</title>
<ellipse fill="none" stroke="black" cx="559.88" cy="-522" rx="45.72" ry="18"/>
<text text-anchor="middle" x="559.88" y="-516.95" font-family="Times,serif" font-size="14.00">PWB 2.0</text>
</g>
<!-- Interdata&#45;&gt;PWB 2.0 -->
<g id="edge9" class="edge">
<title>Interdata&#45;&gt;PWB 2.0</title>
<path fill="none" stroke="black" d="M286.77,-581.74C293.39,-579.68 300.32,-577.66 306.88,-576 391.48,-554.63 414.92,-559.91 499.88,-540 504.2,-538.99 508.68,-537.86 513.15,-536.69"/>
<polygon fill="black" stroke="black" points="513.97,-540.09 522.71,-534.09 512.14,-533.34 513.97,-540.09"/>
</g>
<!-- 7th Edition -->
<g id="node11" class="node">
<title>7th Edition</title>
<ellipse fill="none" stroke="black" cx="253.88" cy="-522" rx="52.38" ry="18"/>
<text text-anchor="middle" x="253.88" y="-516.95" font-family="Times,serif" font-size="14.00">7th Edition</text>
</g>
<!-- Interdata&#45;&gt;7th Edition -->
<g id="edge10" class="edge">
<title>Interdata&#45;&gt;7th Edition</title>
<path fill="none" stroke="black" d="M253.88,-575.7C253.88,-568.41 253.88,-559.73 253.88,-551.54"/>
<polygon fill="black" stroke="black" points="257.38,-551.62 253.88,-541.62 250.38,-551.62 257.38,-551.62"/>
</g>
<!-- TS 4.0 -->
<g id="node38" class="node">
<title>TS 4.0</title>
<ellipse fill="none" stroke="black" cx="699.88" cy="-234" rx="36" ry="18"/>
<text text-anchor="middle" x="699.88" y="-228.95" font-family="Times,serif" font-size="14.00">TS 4.0</text>
</g>
<!-- Unix/TS 3.0&#45;&gt;TS 4.0 -->
<g id="edge44" class="edge">
<title>Unix/TS 3.0&#45;&gt;TS 4.0</title>
<path fill="none" stroke="black" d="M624.25,-359.87C639.05,-335.43 666.37,-290.33 683.8,-261.55"/>
<polygon fill="black" stroke="black" points="686.77,-263.41 688.95,-253.04 680.78,-259.78 686.77,-263.41"/>
</g>
<!-- PWB 2.0&#45;&gt;Unix/TS 3.0 -->
<g id="edge42" class="edge">
<title>PWB 2.0&#45;&gt;Unix/TS 3.0</title>
<path fill="none" stroke="black" d="M556.37,-503.83C553.4,-485.31 551.05,-455.36 560.88,-432 565.62,-420.73 574.02,-410.59 582.76,-402.27"/>
<polygon fill="black" stroke="black" points="584.82,-405.13 589.99,-395.88 580.18,-399.88 584.82,-405.13"/>
</g>
<!-- 8th Edition -->
<g id="node12" class="node">
<title>8th Edition</title>
<ellipse fill="none" stroke="black" cx="458.88" cy="-162" rx="52.38" ry="18"/>
<text text-anchor="middle" x="458.88" y="-156.95" font-family="Times,serif" font-size="14.00">8th Edition</text>
</g>
<!-- 7th Edition&#45;&gt;8th Edition -->
<g id="edge11" class="edge">
<title>7th Edition&#45;&gt;8th Edition</title>
<path fill="none" stroke="black" d="M299.45,-512.64C345.21,-503.32 411.37,-487.04 428.88,-468 456.26,-438.23 447.88,-419.45 447.88,-379 447.88,-379 447.88,-379 447.88,-305 447.88,-265.62 452.14,-220.29 455.35,-191.64"/>
<polygon fill="black" stroke="black" points="458.8,-192.3 456.48,-181.96 451.85,-191.49 458.8,-192.3"/>
</g>
<!-- 32V -->
<g id="node13" class="node">
<title>32V</title>
<ellipse fill="none" stroke="black" cx="392.88" cy="-450" rx="27" ry="18"/>
<text text-anchor="middle" x="392.88" y="-444.95" font-family="Times,serif" font-size="14.00">32V</text>
</g>
<!-- 7th Edition&#45;&gt;32V -->
<g id="edge12" class="edge">
<title>7th Edition&#45;&gt;32V</title>
<path fill="none" stroke="black" d="M282.68,-506.5C305.71,-494.9 337.95,-478.66 361.61,-466.75"/>
<polygon fill="black" stroke="black" points="363.1,-469.91 370.46,-462.29 359.96,-463.66 363.1,-469.91"/>
</g>
<!-- V7M -->
<g id="node14" class="node">
<title>V7M</title>
<ellipse fill="none" stroke="black" cx="30.88" cy="-378" rx="30.88" ry="18"/>
<text text-anchor="middle" x="30.88" y="-372.95" font-family="Times,serif" font-size="14.00">V7M</text>
</g>
<!-- 7th Edition&#45;&gt;V7M -->
<g id="edge13" class="edge">
<title>7th Edition&#45;&gt;V7M</title>
<path fill="none" stroke="black" d="M216.71,-508.97C190.96,-499.77 156.48,-485.66 128.88,-468 99.83,-449.42 71.18,-422.05 52.43,-402.58"/>
<polygon fill="black" stroke="black" points="55,-400.2 45.58,-395.34 49.91,-405.01 55,-400.2"/>
</g>
<!-- Ultrix&#45;11 -->
<g id="node15" class="node">
<title>Ultrix&#45;11</title>
<ellipse fill="none" stroke="black" cx="107.88" cy="-90" rx="45.21" ry="18"/>
<text text-anchor="middle" x="107.88" y="-84.95" font-family="Times,serif" font-size="14.00">Ultrix&#45;11</text>
</g>
<!-- 7th Edition&#45;&gt;Ultrix&#45;11 -->
<g id="edge14" class="edge">
<title>7th Edition&#45;&gt;Ultrix&#45;11</title>
<path fill="none" stroke="black" d="M217.84,-508.61C198.41,-500.12 175.66,-486.93 161.88,-468 138.08,-435.3 142.88,-419.45 142.88,-379 142.88,-379 142.88,-379 142.88,-233 142.88,-192.38 129.21,-147.08 118.96,-118.81"/>
<polygon fill="black" stroke="black" points="122.28,-117.7 115.49,-109.57 115.73,-120.16 122.28,-117.7"/>
</g>
<!-- Xenix -->
<g id="node16" class="node">
<title>Xenix</title>
<ellipse fill="none" stroke="black" cx="203.88" cy="-450" rx="33.44" ry="18"/>
<text text-anchor="middle" x="203.88" y="-444.95" font-family="Times,serif" font-size="14.00">Xenix</text>
</g>
<!-- 7th Edition&#45;&gt;Xenix -->
<g id="edge15" class="edge">
<title>7th Edition&#45;&gt;Xenix</title>
<path fill="none" stroke="black" d="M241.78,-504.05C235.86,-495.77 228.61,-485.62 222.04,-476.42"/>
<polygon fill="black" stroke="black" points="225.07,-474.64 216.41,-468.54 219.37,-478.71 225.07,-474.64"/>
</g>
<!-- UniPlus+ -->
<g id="node17" class="node">
<title>UniPlus+</title>
<ellipse fill="none" stroke="black" cx="301.88" cy="-450" rx="46.23" ry="18"/>
<text text-anchor="middle" x="301.88" y="-444.95" font-family="Times,serif" font-size="14.00">UniPlus+</text>
</g>
<!-- 7th Edition&#45;&gt;UniPlus+ -->
<g id="edge16" class="edge">
<title>7th Edition&#45;&gt;UniPlus+</title>
<path fill="none" stroke="black" d="M265.5,-504.05C271.04,-495.97 277.8,-486.12 283.97,-477.11"/>
<polygon fill="black" stroke="black" points="286.74,-479.26 289.51,-469.04 280.97,-475.31 286.74,-479.26"/>
</g>
<!-- 9th Edition -->
<g id="node18" class="node">
<title>9th Edition</title>
<ellipse fill="none" stroke="black" cx="539.88" cy="-90" rx="52.38" ry="18"/>
<text text-anchor="middle" x="539.88" y="-84.95" font-family="Times,serif" font-size="14.00">9th Edition</text>
</g>
<!-- 8th Edition&#45;&gt;9th Edition -->
<g id="edge18" class="edge">
<title>8th Edition&#45;&gt;9th Edition</title>
<path fill="none" stroke="black" d="M477.67,-144.76C488.09,-135.75 501.25,-124.39 512.77,-114.43"/>
<polygon fill="black" stroke="black" points="514.77,-117.32 520.05,-108.14 510.19,-112.03 514.77,-117.32"/>
</g>
<!-- 3 BSD -->
<g id="node22" class="node">
<title>3 BSD</title>
<ellipse fill="none" stroke="black" cx="380.88" cy="-378" rx="36" ry="18"/>
<text text-anchor="middle" x="380.88" y="-372.95" font-family="Times,serif" font-size="14.00">3 BSD</text>
</g>
<!-- 32V&#45;&gt;3 BSD -->
<g id="edge23" class="edge">
<title>32V&#45;&gt;3 BSD</title>
<path fill="none" stroke="black" d="M389.91,-431.7C388.65,-424.32 387.14,-415.52 385.72,-407.25"/>
<polygon fill="black" stroke="black" points="389.21,-406.86 384.07,-397.6 382.31,-408.04 389.21,-406.86"/>
</g>
<!-- V7M&#45;&gt;Ultrix&#45;11 -->
<g id="edge17" class="edge">
<title>V7M&#45;&gt;Ultrix&#45;11</title>
<path fill="none" stroke="black" d="M28.36,-359.66C24.64,-329.69 19.53,-266.56 33.88,-216 44.53,-178.47 69.33,-140.66 87.29,-116.6"/>
<polygon fill="black" stroke="black" points="90.05,-118.75 93.35,-108.68 84.49,-114.5 90.05,-118.75"/>
</g>
<!-- 2.8 BSD -->
<g id="node20" class="node">
<title>2.8 BSD</title>
<ellipse fill="none" stroke="black" cx="213.88" cy="-162" rx="43.16" ry="18"/>
<text text-anchor="middle" x="213.88" y="-156.95" font-family="Times,serif" font-size="14.00">2.8 BSD</text>
</g>
<!-- 2 BSD&#45;&gt;2.8 BSD -->
<g id="edge20" class="edge">
<title>2 BSD&#45;&gt;2.8 BSD</title>
<path fill="none" stroke="black" d="M103.33,-220.32C124.11,-209.55 154.24,-193.92 177.8,-181.71"/>
<polygon fill="black" stroke="black" points="179.16,-184.94 186.43,-177.23 175.94,-178.73 179.16,-184.94"/>
</g>
<!-- 2.8 BSD&#45;&gt;Ultrix&#45;11 -->
<g id="edge21" class="edge">
<title>2.8 BSD&#45;&gt;Ultrix&#45;11</title>
<path fill="none" stroke="black" d="M191.4,-146.15C176.36,-136.22 156.35,-123.01 139.69,-112.01"/>
<polygon fill="black" stroke="black" points="141.86,-109.25 131.59,-106.66 138.01,-115.09 141.86,-109.25"/>
</g>
<!-- 2.9 BSD -->
<g id="node21" class="node">
<title>2.9 BSD</title>
<ellipse fill="none" stroke="black" cx="213.88" cy="-90" rx="43.16" ry="18"/>
<text text-anchor="middle" x="213.88" y="-84.95" font-family="Times,serif" font-size="14.00">2.9 BSD</text>
</g>
<!-- 2.8 BSD&#45;&gt;2.9 BSD -->
<g id="edge22" class="edge">
<title>2.8 BSD&#45;&gt;2.9 BSD</title>
<path fill="none" stroke="black" d="M213.88,-143.7C213.88,-136.41 213.88,-127.73 213.88,-119.54"/>
<polygon fill="black" stroke="black" points="217.38,-119.62 213.88,-109.62 210.38,-119.62 217.38,-119.62"/>
</g>
<!-- 4 BSD -->
<g id="node23" class="node">
<title>4 BSD</title>
<ellipse fill="none" stroke="black" cx="367.88" cy="-306" rx="36" ry="18"/>
<text text-anchor="middle" x="367.88" y="-300.95" font-family="Times,serif" font-size="14.00">4 BSD</text>
</g>
<!-- 3 BSD&#45;&gt;4 BSD -->
<g id="edge24" class="edge">
<title>3 BSD&#45;&gt;4 BSD</title>
<path fill="none" stroke="black" d="M377.67,-359.7C376.3,-352.32 374.66,-343.52 373.13,-335.25"/>
<polygon fill="black" stroke="black" points="376.6,-334.79 371.33,-325.59 369.72,-336.06 376.6,-334.79"/>
</g>
<!-- 4.1 BSD -->
<g id="node24" class="node">
<title>4.1 BSD</title>
<ellipse fill="none" stroke="black" cx="355.88" cy="-234" rx="43.16" ry="18"/>
<text text-anchor="middle" x="355.88" y="-228.95" font-family="Times,serif" font-size="14.00">4.1 BSD</text>
</g>
<!-- 4 BSD&#45;&gt;4.1 BSD -->
<g id="edge25" class="edge">
<title>4 BSD&#45;&gt;4.1 BSD</title>
<path fill="none" stroke="black" d="M364.91,-287.7C363.65,-280.32 362.14,-271.52 360.72,-263.25"/>
<polygon fill="black" stroke="black" points="364.21,-262.86 359.07,-253.6 357.31,-264.04 364.21,-262.86"/>
</g>
<!-- 4.1 BSD&#45;&gt;8th Edition -->
<g id="edge28" class="edge">
<title>4.1 BSD&#45;&gt;8th Edition</title>
<path fill="none" stroke="black" d="M377.72,-218.15C391.9,-208.52 410.64,-195.79 426.53,-184.98"/>
<polygon fill="black" stroke="black" points="428.44,-187.92 434.74,-179.4 424.51,-182.13 428.44,-187.92"/>
</g>
<!-- 4.1 BSD&#45;&gt;2.8 BSD -->
<g id="edge27" class="edge">
<title>4.1 BSD&#45;&gt;2.8 BSD</title>
<path fill="none" stroke="black" d="M328.84,-219.67C306.83,-208.82 275.52,-193.39 251.14,-181.37"/>
<polygon fill="black" stroke="black" points="252.7,-178.23 242.18,-176.95 249.6,-184.51 252.7,-178.23"/>
</g>
<!-- 4.2 BSD -->
<g id="node25" class="node">
<title>4.2 BSD</title>
<ellipse fill="none" stroke="black" cx="344.88" cy="-162" rx="43.16" ry="18"/>
<text text-anchor="middle" x="344.88" y="-156.95" font-family="Times,serif" font-size="14.00">4.2 BSD</text>
</g>
<!-- 4.1 BSD&#45;&gt;4.2 BSD -->
<g id="edge26" class="edge">
<title>4.1 BSD&#45;&gt;4.2 BSD</title>
<path fill="none" stroke="black" d="M353.16,-215.7C352,-208.32 350.62,-199.52 349.32,-191.25"/>
<polygon fill="black" stroke="black" points="352.81,-190.93 347.8,-181.6 345.9,-192.02 352.81,-190.93"/>
</g>
<!-- 4.3 BSD -->
<g id="node26" class="node">
<title>4.3 BSD</title>
<ellipse fill="none" stroke="black" cx="425.88" cy="-90" rx="43.16" ry="18"/>
<text text-anchor="middle" x="425.88" y="-84.95" font-family="Times,serif" font-size="14.00">4.3 BSD</text>
</g>
<!-- 4.2 BSD&#45;&gt;4.3 BSD -->
<g id="edge29" class="edge">
<title>4.2 BSD&#45;&gt;4.3 BSD</title>
<path fill="none" stroke="black" d="M362.86,-145.46C373.48,-136.29 387.13,-124.49 399.01,-114.22"/>
<polygon fill="black" stroke="black" points="401.25,-116.91 406.53,-107.72 396.67,-111.61 401.25,-116.91"/>
</g>
<!-- Ultrix&#45;32 -->
<g id="node27" class="node">
<title>Ultrix&#45;32</title>
<ellipse fill="none" stroke="black" cx="319.88" cy="-90" rx="45.21" ry="18"/>
<text text-anchor="middle" x="319.88" y="-84.95" font-family="Times,serif" font-size="14.00">Ultrix&#45;32</text>
</g>
<!-- 4.2 BSD&#45;&gt;Ultrix&#45;32 -->
<g id="edge30" class="edge">
<title>4.2 BSD&#45;&gt;Ultrix&#45;32</title>
<path fill="none" stroke="black" d="M338.7,-143.7C336,-136.15 332.78,-127.12 329.76,-118.68"/>
<polygon fill="black" stroke="black" points="333.16,-117.77 326.5,-109.53 326.56,-120.12 333.16,-117.77"/>
</g>
<!-- PWB 1.2&#45;&gt;PWB 2.0 -->
<g id="edge33" class="edge">
<title>PWB 1.2&#45;&gt;PWB 2.0</title>
<path fill="none" stroke="black" d="M660.08,-578.67C641.48,-568.33 616.14,-554.25 595.59,-542.84"/>
<polygon fill="black" stroke="black" points="597.41,-539.85 586.97,-538.05 594.01,-545.97 597.41,-539.85"/>
</g>
<!-- CB Unix 1 -->
<g id="node30" class="node">
<title>CB Unix 1</title>
<ellipse fill="none" stroke="black" cx="824.88" cy="-522" rx="51.35" ry="18"/>
<text text-anchor="middle" x="824.88" y="-516.95" font-family="Times,serif" font-size="14.00">CB Unix 1</text>
</g>
<!-- USG 1.0&#45;&gt;CB Unix 1 -->
<g id="edge34" class="edge">
<title>USG 1.0&#45;&gt;CB Unix 1</title>
<path fill="none" stroke="black" d="M800.63,-576.05C804.11,-568.43 808.32,-559.23 812.24,-550.65"/>
<polygon fill="black" stroke="black" points="815.38,-552.2 816.35,-541.65 809.01,-549.29 815.38,-552.2"/>
</g>
<!-- USG 2.0 -->
<g id="node31" class="node">
<title>USG 2.0</title>
<ellipse fill="none" stroke="black" cx="696.88" cy="-522" rx="43.67" ry="18"/>
<text text-anchor="middle" x="696.88" y="-516.95" font-family="Times,serif" font-size="14.00">USG 2.0</text>
</g>
<!-- USG 1.0&#45;&gt;USG 2.0 -->
<g id="edge35" class="edge">
<title>USG 1.0&#45;&gt;USG 2.0</title>
<path fill="none" stroke="black" d="M772.05,-577.81C758.84,-568.18 741.54,-555.56 726.86,-544.86"/>
<polygon fill="black" stroke="black" points="729.03,-542.11 718.89,-539.05 724.91,-547.77 729.03,-542.11"/>
</g>
<!-- CB Unix 2 -->
<g id="node32" class="node">
<title>CB Unix 2</title>
<ellipse fill="none" stroke="black" cx="858.88" cy="-450" rx="51.35" ry="18"/>
<text text-anchor="middle" x="858.88" y="-444.95" font-family="Times,serif" font-size="14.00">CB Unix 2</text>
</g>
<!-- CB Unix 1&#45;&gt;CB Unix 2 -->
<g id="edge36" class="edge">
<title>CB Unix 1&#45;&gt;CB Unix 2</title>
<path fill="none" stroke="black" d="M833.11,-504.05C836.91,-496.23 841.52,-486.75 845.78,-477.98"/>
<polygon fill="black" stroke="black" points="848.84,-479.67 850.06,-469.15 842.55,-476.62 848.84,-479.67"/>
</g>
<!-- USG 3.0 -->
<g id="node36" class="node">
<title>USG 3.0</title>
<ellipse fill="none" stroke="black" cx="613.88" cy="-450" rx="43.67" ry="18"/>
<text text-anchor="middle" x="613.88" y="-444.95" font-family="Times,serif" font-size="14.00">USG 3.0</text>
</g>
<!-- USG 2.0&#45;&gt;USG 3.0 -->
<g id="edge40" class="edge">
<title>USG 2.0&#45;&gt;USG 3.0</title>
<path fill="none" stroke="black" d="M678.46,-505.46C667.47,-496.2 653.31,-484.25 641.05,-473.92"/>
<polygon fill="black" stroke="black" points="643.59,-471.48 633.69,-467.71 639.08,-476.83 643.59,-471.48"/>
</g>
<!-- CB Unix 3 -->
<g id="node33" class="node">
<title>CB Unix 3</title>
<ellipse fill="none" stroke="black" cx="798.88" cy="-378" rx="51.35" ry="18"/>
<text text-anchor="middle" x="798.88" y="-372.95" font-family="Times,serif" font-size="14.00">CB Unix 3</text>
</g>
<!-- CB Unix 2&#45;&gt;CB Unix 3 -->
<g id="edge37" class="edge">
<title>CB Unix 2&#45;&gt;CB Unix 3</title>
<path fill="none" stroke="black" d="M844.66,-432.41C837.41,-423.95 828.45,-413.49 820.37,-404.08"/>
<polygon fill="black" stroke="black" points="823.15,-401.93 813.98,-396.62 817.83,-406.49 823.15,-401.93"/>
</g>
<!-- Unix/TS++ -->
<g id="node34" class="node">
<title>Unix/TS++</title>
<ellipse fill="none" stroke="black" cx="781.88" cy="-306" rx="53.91" ry="18"/>
<text text-anchor="middle" x="781.88" y="-300.95" font-family="Times,serif" font-size="14.00">Unix/TS++</text>
</g>
<!-- CB Unix 3&#45;&gt;Unix/TS++ -->
<g id="edge38" class="edge">
<title>CB Unix 3&#45;&gt;Unix/TS++</title>
<path fill="none" stroke="black" d="M794.68,-359.7C792.89,-352.32 790.75,-343.52 788.74,-335.25"/>
<polygon fill="black" stroke="black" points="792.15,-334.47 786.39,-325.58 785.35,-336.12 792.15,-334.47"/>
</g>
<!-- PDP&#45;11 Sys V -->
<g id="node35" class="node">
<title>PDP&#45;11 Sys V</title>
<ellipse fill="none" stroke="black" cx="918.88" cy="-306" rx="64.66" ry="18"/>
<text text-anchor="middle" x="918.88" y="-300.95" font-family="Times,serif" font-size="14.00">PDP&#45;11 Sys V</text>
</g>
<!-- CB Unix 3&#45;&gt;PDP&#45;11 Sys V -->
<g id="edge39" class="edge">
<title>CB Unix 3&#45;&gt;PDP&#45;11 Sys V</title>
<path fill="none" stroke="black" d="M824.62,-361.98C841.36,-352.22 863.44,-339.34 882.02,-328.5"/>
<polygon fill="black" stroke="black" points="883.75,-331.54 890.62,-323.48 880.22,-325.5 883.75,-331.54"/>
</g>
<!-- CB Unix 3&#45;&gt;TS 4.0 -->
<g id="edge46" class="edge">
<title>CB Unix 3&#45;&gt;TS 4.0</title>
<path fill="none" stroke="black" d="M767.48,-363.51C750.57,-354.67 730.79,-341.49 718.88,-324 706.77,-306.22 702.16,-282.17 700.51,-263.56"/>
<polygon fill="black" stroke="black" points="704.01,-263.5 699.89,-253.74 697.03,-263.94 704.01,-263.5"/>
</g>
<!-- Unix/TS++&#45;&gt;TS 4.0 -->
<g id="edge45" class="edge">
<title>Unix/TS++&#45;&gt;TS 4.0</title>
<path fill="none" stroke="black" d="M762.86,-288.76C751.93,-279.43 738.03,-267.57 726.08,-257.36"/>
<polygon fill="black" stroke="black" points="728.42,-254.77 718.55,-250.94 723.88,-260.09 728.42,-254.77"/>
</g>
<!-- USG 3.0&#45;&gt;Unix/TS 3.0 -->
<g id="edge41" class="edge">
<title>USG 3.0&#45;&gt;Unix/TS 3.0</title>
<path fill="none" stroke="black" d="M613.88,-431.7C613.88,-424.41 613.88,-415.73 613.88,-407.54"/>
<polygon fill="black" stroke="black" points="617.38,-407.62 613.88,-397.62 610.38,-407.62 617.38,-407.62"/>
</g>
<!-- Unix/TS 1.0 -->
<g id="node37" class="node">
<title>Unix/TS 1.0</title>
<ellipse fill="none" stroke="black" cx="732.88" cy="-450" rx="56.98" ry="18"/>
<text text-anchor="middle" x="732.88" y="-444.95" font-family="Times,serif" font-size="14.00">Unix/TS 1.0</text>
</g>
<!-- Unix/TS 1.0&#45;&gt;Unix/TS 3.0 -->
<g id="edge43" class="edge">
<title>Unix/TS 1.0&#45;&gt;Unix/TS 3.0</title>
<path fill="none" stroke="black" d="M706.76,-433.64C690.02,-423.79 668.07,-410.88 649.71,-400.08"/>
<polygon fill="black" stroke="black" points="651.63,-397.15 641.24,-395.09 648.08,-403.18 651.63,-397.15"/>
</g>
<!-- System V.0 -->
<g id="node39" class="node">
<title>System V.0</title>
<ellipse fill="none" stroke="black" cx="699.88" cy="-162" rx="52.89" ry="18"/>
<text text-anchor="middle" x="699.88" y="-156.95" font-family="Times,serif" font-size="14.00">System V.0</text>
</g>
<!-- TS 4.0&#45;&gt;System V.0 -->
<g id="edge47" class="edge">
<title>TS 4.0&#45;&gt;System V.0</title>
<path fill="none" stroke="black" d="M699.88,-215.7C699.88,-208.41 699.88,-199.73 699.88,-191.54"/>
<polygon fill="black" stroke="black" points="703.38,-191.62 699.88,-181.62 696.38,-191.62 703.38,-191.62"/>
</g>
<!-- System V.2 -->
<g id="node40" class="node">
<title>System V.2</title>
<ellipse fill="none" stroke="black" cx="699.88" cy="-90" rx="52.89" ry="18"/>
<text text-anchor="middle" x="699.88" y="-84.95" font-family="Times,serif" font-size="14.00">System V.2</text>
</g>
<!-- System V.0&#45;&gt;System V.2 -->
<g id="edge48" class="edge">
<title>System V.0&#45;&gt;System V.2</title>
<path fill="none" stroke="black" d="M699.88,-143.7C699.88,-136.41 699.88,-127.73 699.88,-119.54"/>
<polygon fill="black" stroke="black" points="703.38,-119.62 699.88,-109.62 696.38,-119.62 703.38,-119.62"/>
</g>
<!-- System V.3 -->
<g id="node41" class="node">
<title>System V.3</title>
<ellipse fill="none" stroke="black" cx="699.88" cy="-18" rx="52.89" ry="18"/>
<text text-anchor="middle" x="699.88" y="-12.95" font-family="Times,serif" font-size="14.00">System V.3</text>
</g>
<!-- System V.2&#45;&gt;System V.3 -->
<g id="edge49" class="edge">
<title>System V.2&#45;&gt;System V.3</title>
<path fill="none" stroke="black" d="M699.88,-71.7C699.88,-64.41 699.88,-55.73 699.88,-47.54"/>
<polygon fill="black" stroke="black" points="703.38,-47.62 699.88,-37.62 696.38,-47.62 703.38,-47.62"/>
</g>
</g>
</svg>
