<?xml version="1.0" encoding="UTF-8" standalone="no"?>
<!DOCTYPE svg PUBLIC "-//W3C//DTD SVG 1.1//EN"
 "http://www.w3.org/Graphics/SVG/1.1/DTD/svg11.dtd">
<!-- Generated by graphviz version 11.0.0~dev.20240329.2055 (20240329.2055)
 -->
<!-- Pages: 1 -->
<svg width="422pt" height="260pt"
 viewBox="0.00 0.00 422.00 260.00" xmlns="http://www.w3.org/2000/svg" xmlns:xlink="http://www.w3.org/1999/xlink">
<g id="graph0" class="graph" transform="scale(1 1) rotate(0) translate(4 256)">
<polygon fill="white" stroke="none" points="-4,4 -4,-256 418,-256 418,4 -4,4"/>
<!-- a -->
<g id="node1" class="node">
<title>a</title>
<ellipse fill="none" stroke="black" cx="207" cy="-234" rx="27" ry="18"/>
<text text-anchor="middle" x="207" y="-228.95" font-family="Times,serif" font-size="14.00">a</text>
</g>
<!-- b -->
<g id="node2" class="node">
<title>b</title>
<ellipse fill="none" stroke="black" cx="27" cy="-162" rx="27" ry="18"/>
<text text-anchor="middle" x="27" y="-156.95" font-family="Times,serif" font-size="14.00">b</text>
</g>
<!-- a&#45;&gt;b -->
<g id="edge1" class="edge">
<title>a&#45;&gt;b</title>
<path fill="none" stroke="black" d="M183.05,-224.91C154.27,-215.03 104.64,-197.46 63,-180 61.49,-179.37 59.94,-178.7 58.39,-178.02"/>
<polygon fill="black" stroke="black" points="60.11,-174.96 49.56,-174.01 57.21,-181.33 60.11,-174.96"/>
</g>
<!-- c -->
<g id="node3" class="node">
<title>c</title>
<ellipse fill="none" stroke="black" cx="99" cy="-162" rx="27" ry="18"/>
<text text-anchor="middle" x="99" y="-156.95" font-family="Times,serif" font-size="14.00">c</text>
</g>
<!-- a&#45;&gt;c -->
<g id="edge2" class="edge">
<title>a&#45;&gt;c</title>
<path fill="none" stroke="black" d="M188.19,-220.81C171.41,-209.93 146.61,-193.86 127.41,-181.42"/>
<polygon fill="black" stroke="black" points="129.52,-178.61 119.23,-176.11 125.72,-184.49 129.52,-178.61"/>
</g>
<!-- d -->
<g id="node4" class="node">
<title>d</title>
<ellipse fill="none" stroke="black" cx="171" cy="-162" rx="27" ry="18"/>
<text text-anchor="middle" x="171" y="-156.95" font-family="Times,serif" font-size="14.00">d</text>
</g>
<!-- a&#45;&gt;d -->
<g id="edge3" class="edge">
<title>a&#45;&gt;d</title>
<path fill="none" stroke="black" d="M198.65,-216.76C194.42,-208.55 189.19,-198.37 184.42,-189.09"/>
<polygon fill="black" stroke="black" points="187.68,-187.79 180,-180.49 181.46,-190.99 187.68,-187.79"/>
</g>
<!-- i -->
<g id="node5" class="node">
<title>i</title>
<ellipse fill="none" stroke="black" cx="243" cy="-162" rx="27" ry="18"/>
<text text-anchor="middle" x="243" y="-156.95" font-family="Times,serif" font-size="14.00">i</text>
</g>
<!-- a&#45;&gt;i -->
<g id="edge4" class="edge">
<title>a&#45;&gt;i</title>
<path fill="none" stroke="black" d="M215.35,-216.76C219.58,-208.55 224.81,-198.37 229.58,-189.09"/>
<polygon fill="black" stroke="black" points="232.54,-190.99 234,-180.49 226.32,-187.79 232.54,-190.99"/>
</g>
<!-- j -->
<g id="node6" class="node">
<title>j</title>
<ellipse fill="none" stroke="black" cx="315" cy="-162" rx="27" ry="18"/>
<text text-anchor="middle" x="315" y="-156.95" font-family="Times,serif" font-size="14.00">j</text>
</g>
<!-- a&#45;&gt;j -->
<g id="edge5" class="edge">
<title>a&#45;&gt;j</title>
<path fill="none" stroke="black" d="M225.81,-220.81C242.59,-209.93 267.39,-193.86 286.59,-181.42"/>
<polygon fill="black" stroke="black" points="288.28,-184.49 294.77,-176.11 284.48,-178.61 288.28,-184.49"/>
</g>
<!-- k -->
<g id="node7" class="node">
<title>k</title>
<ellipse fill="none" stroke="black" cx="387" cy="-162" rx="27" ry="18"/>
<text text-anchor="middle" x="387" y="-156.95" font-family="Times,serif" font-size="14.00">k</text>
</g>
<!-- a&#45;&gt;k -->
<g id="edge6" class="edge">
<title>a&#45;&gt;k</title>
<path fill="none" stroke="black" d="M230.95,-224.91C259.73,-215.03 309.36,-197.46 351,-180 352.51,-179.37 354.06,-178.7 355.61,-178.02"/>
<polygon fill="black" stroke="black" points="356.79,-181.33 364.44,-174.01 353.89,-174.96 356.79,-181.33"/>
</g>
<!-- l -->
<g id="node8" class="node">
<title>l</title>
<ellipse fill="none" stroke="black" cx="315" cy="-90" rx="27" ry="18"/>
<text text-anchor="middle" x="315" y="-84.95" font-family="Times,serif" font-size="14.00">l</text>
</g>
<!-- i&#45;&gt;l -->
<g id="edge7" class="edge">
<title>i&#45;&gt;l</title>
<path fill="none" stroke="black" d="M257.92,-146.5C267.77,-136.92 280.86,-124.19 292.03,-113.34"/>
<polygon fill="black" stroke="black" points="294.29,-116.02 299.02,-106.54 289.41,-111 294.29,-116.02"/>
</g>
<!-- j&#45;&gt;l -->
<g id="edge8" class="edge">
<title>j&#45;&gt;l</title>
<path fill="none" stroke="black" d="M315,-143.7C315,-136.41 315,-127.73 315,-119.54"/>
<polygon fill="black" stroke="black" points="318.5,-119.62 315,-109.62 311.5,-119.62 318.5,-119.62"/>
</g>
<!-- k&#45;&gt;l -->
<g id="edge9" class="edge">
<title>k&#45;&gt;l</title>
<path fill="none" stroke="black" d="M372.08,-146.5C362.23,-136.92 349.14,-124.19 337.97,-113.34"/>
<polygon fill="black" stroke="black" points="340.59,-111 330.98,-106.54 335.71,-116.02 340.59,-111"/>
</g>
<!-- h -->
<g id="node9" class="node">
<title>h</title>
<ellipse fill="none" stroke="black" cx="315" cy="-18" rx="27" ry="18"/>
<text text-anchor="middle" x="315" y="-12.95" font-family="Times,serif" font-size="14.00">h</text>
</g>
<!-- l&#45;&gt;h -->
<g id="edge10" class="edge">
<title>l&#45;&gt;h</title>
<path fill="none" stroke="black" d="M315,-71.7C315,-64.41 315,-55.73 315,-47.54"/>
<polygon fill="black" stroke="black" points="318.5,-47.62 315,-37.62 311.5,-47.62 318.5,-47.62"/>
</g>
</g>
</svg>
