<?xml version="1.0" encoding="UTF-8" standalone="no"?>
<!DOCTYPE svg PUBLIC "-//W3C//DTD SVG 1.1//EN"
 "http://www.w3.org/Graphics/SVG/1.1/DTD/svg11.dtd">
<!-- Generated by graphviz version 11.0.0~dev.20240329.2055 (20240329.2055)
 -->
<!-- Pages: 1 -->
<svg width="484pt" height="692pt"
 viewBox="0.00 0.00 483.87 692.00" xmlns="http://www.w3.org/2000/svg" xmlns:xlink="http://www.w3.org/1999/xlink">
<g id="graph0" class="graph" transform="scale(1 1) rotate(0) translate(4 688)">
<polygon fill="white" stroke="none" points="-4,4 -4,-688 479.87,-688 479.87,4 -4,4"/>
<!-- 1 -->
<g id="node1" class="node">
<title>1</title>
<ellipse fill="none" stroke="black" cx="56.87" cy="-666" rx="27" ry="18"/>
<text text-anchor="middle" x="56.87" y="-660.95" font-family="Times,serif" font-size="14.00">1</text>
</g>
<!-- 3 -->
<g id="node2" class="node">
<title>3</title>
<ellipse fill="none" stroke="black" cx="382.87" cy="-594" rx="27" ry="18"/>
<text text-anchor="middle" x="382.87" y="-588.95" font-family="Times,serif" font-size="14.00">3</text>
</g>
<!-- 1&#45;&gt;3 -->
<g id="edge1" class="edge">
<title>1&#45;&gt;3</title>
<path fill="none" stroke="black" d="M82.45,-659.51C139.94,-647.16 279.53,-617.19 346.22,-602.87"/>
<polygon fill="black" stroke="black" points="346.89,-606.31 355.93,-600.79 345.42,-599.46 346.89,-606.31"/>
</g>
<!-- 13 -->
<g id="node20" class="node">
<title>13</title>
<ellipse fill="none" stroke="black" cx="56.87" cy="-234" rx="27" ry="18"/>
<text text-anchor="middle" x="56.87" y="-228.95" font-family="Times,serif" font-size="14.00">13</text>
</g>
<!-- 1&#45;&gt;13 -->
<g id="edge28" class="edge">
<title>1&#45;&gt;13</title>
<path fill="none" stroke="black" d="M56.87,-647.51C56.87,-620.71 56.87,-567.87 56.87,-523 56.87,-523 56.87,-523 56.87,-377 56.87,-337.74 56.87,-292.38 56.87,-263.69"/>
<polygon fill="black" stroke="black" points="60.37,-264 56.87,-254 53.37,-264 60.37,-264"/>
</g>
<!-- 21 -->
<g id="node23" class="node">
<title>21</title>
<ellipse fill="none" stroke="black" cx="164.87" cy="-90" rx="27" ry="18"/>
<text text-anchor="middle" x="164.87" y="-84.95" font-family="Times,serif" font-size="14.00">21</text>
</g>
<!-- 1&#45;&gt;21 -->
<g id="edge31" class="edge">
<title>1&#45;&gt;21</title>
<path fill="none" stroke="black" d="M46.27,-649.16C30.29,-623.72 1.87,-571.64 1.87,-523 1.87,-523 1.87,-523 1.87,-233 1.87,-192.55 -5.62,-174.56 20.87,-144 47.64,-113.12 94.04,-100.22 126.93,-94.84"/>
<polygon fill="black" stroke="black" points="127.06,-98.35 136.45,-93.45 126.05,-91.43 127.06,-98.35"/>
</g>
<!-- 5 -->
<g id="node5" class="node">
<title>5</title>
<ellipse fill="none" stroke="black" cx="382.87" cy="-522" rx="27" ry="18"/>
<text text-anchor="middle" x="382.87" y="-516.95" font-family="Times,serif" font-size="14.00">5</text>
</g>
<!-- 3&#45;&gt;5 -->
<g id="edge4" class="edge">
<title>3&#45;&gt;5</title>
<path fill="none" stroke="black" d="M382.87,-575.7C382.87,-568.41 382.87,-559.73 382.87,-551.54"/>
<polygon fill="black" stroke="black" points="386.37,-551.62 382.87,-541.62 379.37,-551.62 386.37,-551.62"/>
</g>
<!-- 4 -->
<g id="node9" class="node">
<title>4</title>
<ellipse fill="none" stroke="black" cx="310.87" cy="-522" rx="27" ry="18"/>
<text text-anchor="middle" x="310.87" y="-516.95" font-family="Times,serif" font-size="14.00">4</text>
</g>
<!-- 3&#45;&gt;4 -->
<g id="edge9" class="edge">
<title>3&#45;&gt;4</title>
<path fill="none" stroke="black" d="M367.96,-578.5C358.11,-568.92 345.01,-556.19 333.85,-545.34"/>
<polygon fill="black" stroke="black" points="336.47,-543 326.86,-538.54 331.59,-548.02 336.47,-543"/>
</g>
<!-- 23 -->
<g id="node14" class="node">
<title>23</title>
<ellipse fill="none" stroke="black" cx="299.87" cy="-18" rx="27" ry="18"/>
<text text-anchor="middle" x="299.87" y="-12.95" font-family="Times,serif" font-size="14.00">23</text>
</g>
<!-- 3&#45;&gt;23 -->
<g id="edge15" class="edge">
<title>3&#45;&gt;23</title>
<path fill="none" stroke="black" d="M395.62,-577.7C403.43,-567.59 413.02,-553.71 418.87,-540 434.75,-502.8 437.87,-491.45 437.87,-451 437.87,-451 437.87,-451 437.87,-161 437.87,-100.44 372.52,-55.99 331.77,-34.15"/>
<polygon fill="black" stroke="black" points="333.57,-31.14 323.08,-29.66 330.36,-37.36 333.57,-31.14"/>
</g>
<!-- 2 -->
<g id="node3" class="node">
<title>2</title>
<ellipse fill="none" stroke="black" cx="428.87" cy="-666" rx="27" ry="18"/>
<text text-anchor="middle" x="428.87" y="-660.95" font-family="Times,serif" font-size="14.00">2</text>
</g>
<!-- 2&#45;&gt;3 -->
<g id="edge2" class="edge">
<title>2&#45;&gt;3</title>
<path fill="none" stroke="black" d="M418.44,-649.12C412.85,-640.61 405.83,-629.94 399.51,-620.32"/>
<polygon fill="black" stroke="black" points="402.52,-618.52 394.1,-612.09 396.67,-622.37 402.52,-618.52"/>
</g>
<!-- 20 -->
<g id="node4" class="node">
<title>20</title>
<ellipse fill="none" stroke="black" cx="382.87" cy="-162" rx="27" ry="18"/>
<text text-anchor="middle" x="382.87" y="-156.95" font-family="Times,serif" font-size="14.00">20</text>
</g>
<!-- 2&#45;&gt;20 -->
<g id="edge3" class="edge">
<title>2&#45;&gt;20</title>
<path fill="none" stroke="black" d="M437.94,-648.96C451.59,-623.23 475.87,-570.78 475.87,-523 475.87,-523 475.87,-523 475.87,-305 475.87,-255.27 435.47,-209.41 407.92,-183.92"/>
<polygon fill="black" stroke="black" points="410.41,-181.45 400.63,-177.39 405.75,-186.66 410.41,-181.45"/>
</g>
<!-- 7 -->
<g id="node6" class="node">
<title>7</title>
<ellipse fill="none" stroke="black" cx="382.87" cy="-450" rx="27" ry="18"/>
<text text-anchor="middle" x="382.87" y="-444.95" font-family="Times,serif" font-size="14.00">7</text>
</g>
<!-- 5&#45;&gt;7 -->
<g id="edge5" class="edge">
<title>5&#45;&gt;7</title>
<path fill="none" stroke="black" d="M382.87,-503.7C382.87,-496.41 382.87,-487.73 382.87,-479.54"/>
<polygon fill="black" stroke="black" points="386.37,-479.62 382.87,-469.62 379.37,-479.62 386.37,-479.62"/>
</g>
<!-- 9 -->
<g id="node7" class="node">
<title>9</title>
<ellipse fill="none" stroke="black" cx="382.87" cy="-378" rx="27" ry="18"/>
<text text-anchor="middle" x="382.87" y="-372.95" font-family="Times,serif" font-size="14.00">9</text>
</g>
<!-- 7&#45;&gt;9 -->
<g id="edge6" class="edge">
<title>7&#45;&gt;9</title>
<path fill="none" stroke="black" d="M382.87,-431.7C382.87,-424.41 382.87,-415.73 382.87,-407.54"/>
<polygon fill="black" stroke="black" points="386.37,-407.62 382.87,-397.62 379.37,-407.62 386.37,-407.62"/>
</g>
<!-- 12 -->
<g id="node8" class="node">
<title>12</title>
<ellipse fill="none" stroke="black" cx="382.87" cy="-306" rx="27" ry="18"/>
<text text-anchor="middle" x="382.87" y="-300.95" font-family="Times,serif" font-size="14.00">12</text>
</g>
<!-- 9&#45;&gt;12 -->
<g id="edge7" class="edge">
<title>9&#45;&gt;12</title>
<path fill="none" stroke="black" d="M382.87,-359.7C382.87,-352.41 382.87,-343.73 382.87,-335.54"/>
<polygon fill="black" stroke="black" points="386.37,-335.62 382.87,-325.62 379.37,-335.62 386.37,-335.62"/>
</g>
<!-- 12&#45;&gt;20 -->
<g id="edge8" class="edge">
<title>12&#45;&gt;20</title>
<path fill="none" stroke="black" d="M382.87,-287.59C382.87,-263.61 382.87,-220.14 382.87,-191.42"/>
<polygon fill="black" stroke="black" points="386.37,-191.62 382.87,-181.62 379.37,-191.62 386.37,-191.62"/>
</g>
<!-- 6 -->
<g id="node10" class="node">
<title>6</title>
<ellipse fill="none" stroke="black" cx="295.87" cy="-450" rx="27" ry="18"/>
<text text-anchor="middle" x="295.87" y="-444.95" font-family="Times,serif" font-size="14.00">6</text>
</g>
<!-- 4&#45;&gt;6 -->
<g id="edge10" class="edge">
<title>4&#45;&gt;6</title>
<path fill="none" stroke="black" d="M307.17,-503.7C305.59,-496.32 303.7,-487.52 301.93,-479.25"/>
<polygon fill="black" stroke="black" points="305.37,-478.63 299.86,-469.58 298.53,-480.1 305.37,-478.63"/>
</g>
<!-- 16 -->
<g id="node11" class="node">
<title>16</title>
<ellipse fill="none" stroke="black" cx="272.87" cy="-234" rx="27" ry="18"/>
<text text-anchor="middle" x="272.87" y="-228.95" font-family="Times,serif" font-size="14.00">16</text>
</g>
<!-- 6&#45;&gt;16 -->
<g id="edge11" class="edge">
<title>6&#45;&gt;16</title>
<path fill="none" stroke="black" d="M294.03,-431.85C290.09,-395.14 280.79,-308.66 275.94,-263.53"/>
<polygon fill="black" stroke="black" points="279.44,-263.31 274.89,-253.74 272.48,-264.05 279.44,-263.31"/>
</g>
<!-- 6&#45;&gt;23 -->
<g id="edge16" class="edge">
<title>6&#45;&gt;23</title>
<path fill="none" stroke="black" d="M302.2,-432.23C311.52,-405.94 327.87,-353.25 327.87,-307 327.87,-307 327.87,-307 327.87,-161 327.87,-120.59 316.82,-74.9 308.6,-46.52"/>
<polygon fill="black" stroke="black" points="312.06,-45.86 305.84,-37.29 305.35,-47.87 312.06,-45.86"/>
</g>
<!-- 8 -->
<g id="node15" class="node">
<title>8</title>
<ellipse fill="none" stroke="black" cx="221.87" cy="-378" rx="27" ry="18"/>
<text text-anchor="middle" x="221.87" y="-372.95" font-family="Times,serif" font-size="14.00">8</text>
</g>
<!-- 6&#45;&gt;8 -->
<g id="edge17" class="edge">
<title>6&#45;&gt;8</title>
<path fill="none" stroke="black" d="M280.9,-434.83C270.64,-425.13 256.82,-412.06 245.13,-401"/>
<polygon fill="black" stroke="black" points="247.85,-398.75 238.18,-394.42 243.04,-403.84 247.85,-398.75"/>
</g>
<!-- 16&#45;&gt;20 -->
<g id="edge25" class="edge">
<title>16&#45;&gt;20</title>
<path fill="none" stroke="black" d="M292.03,-220.81C309.23,-209.87 334.7,-193.66 354.29,-181.19"/>
<polygon fill="black" stroke="black" points="356.1,-184.19 362.66,-175.87 352.34,-178.28 356.1,-184.19"/>
</g>
<!-- 19 -->
<g id="node12" class="node">
<title>19</title>
<ellipse fill="none" stroke="black" cx="272.87" cy="-162" rx="27" ry="18"/>
<text text-anchor="middle" x="272.87" y="-156.95" font-family="Times,serif" font-size="14.00">19</text>
</g>
<!-- 16&#45;&gt;19 -->
<g id="edge12" class="edge">
<title>16&#45;&gt;19</title>
<path fill="none" stroke="black" d="M272.87,-215.7C272.87,-208.41 272.87,-199.73 272.87,-191.54"/>
<polygon fill="black" stroke="black" points="276.37,-191.62 272.87,-181.62 269.37,-191.62 276.37,-191.62"/>
</g>
<!-- 18 -->
<g id="node21" class="node">
<title>18</title>
<ellipse fill="none" stroke="black" cx="164.87" cy="-162" rx="27" ry="18"/>
<text text-anchor="middle" x="164.87" y="-156.95" font-family="Times,serif" font-size="14.00">18</text>
</g>
<!-- 16&#45;&gt;18 -->
<g id="edge26" class="edge">
<title>16&#45;&gt;18</title>
<path fill="none" stroke="black" d="M254.06,-220.81C237.28,-209.93 212.48,-193.86 193.29,-181.42"/>
<polygon fill="black" stroke="black" points="195.4,-178.61 185.1,-176.11 191.59,-184.49 195.4,-178.61"/>
</g>
<!-- 22 -->
<g id="node13" class="node">
<title>22</title>
<ellipse fill="none" stroke="black" cx="272.87" cy="-90" rx="27" ry="18"/>
<text text-anchor="middle" x="272.87" y="-84.95" font-family="Times,serif" font-size="14.00">22</text>
</g>
<!-- 19&#45;&gt;22 -->
<g id="edge13" class="edge">
<title>19&#45;&gt;22</title>
<path fill="none" stroke="black" d="M272.87,-143.7C272.87,-136.41 272.87,-127.73 272.87,-119.54"/>
<polygon fill="black" stroke="black" points="276.37,-119.62 272.87,-109.62 269.37,-119.62 276.37,-119.62"/>
</g>
<!-- 22&#45;&gt;23 -->
<g id="edge14" class="edge">
<title>22&#45;&gt;23</title>
<path fill="none" stroke="black" d="M279.41,-72.05C282.39,-64.32 286,-54.96 289.36,-46.27"/>
<polygon fill="black" stroke="black" points="292.52,-47.79 292.85,-37.2 285.99,-45.27 292.52,-47.79"/>
</g>
<!-- 11 -->
<g id="node16" class="node">
<title>11</title>
<ellipse fill="none" stroke="black" cx="221.87" cy="-306" rx="27" ry="18"/>
<text text-anchor="middle" x="221.87" y="-300.95" font-family="Times,serif" font-size="14.00">11</text>
</g>
<!-- 8&#45;&gt;11 -->
<g id="edge18" class="edge">
<title>8&#45;&gt;11</title>
<path fill="none" stroke="black" d="M221.87,-359.7C221.87,-352.41 221.87,-343.73 221.87,-335.54"/>
<polygon fill="black" stroke="black" points="225.37,-335.62 221.87,-325.62 218.37,-335.62 225.37,-335.62"/>
</g>
<!-- 10 -->
<g id="node17" class="node">
<title>10</title>
<ellipse fill="none" stroke="black" cx="141.87" cy="-306" rx="27" ry="18"/>
<text text-anchor="middle" x="141.87" y="-300.95" font-family="Times,serif" font-size="14.00">10</text>
</g>
<!-- 8&#45;&gt;10 -->
<g id="edge19" class="edge">
<title>8&#45;&gt;10</title>
<path fill="none" stroke="black" d="M206.07,-363.17C194.67,-353.2 179.08,-339.56 166.12,-328.21"/>
<polygon fill="black" stroke="black" points="168.62,-325.75 158.79,-321.8 164.01,-331.02 168.62,-325.75"/>
</g>
<!-- 11&#45;&gt;16 -->
<g id="edge20" class="edge">
<title>11&#45;&gt;16</title>
<path fill="none" stroke="black" d="M233.19,-289.46C239.6,-280.67 247.75,-269.48 255,-259.53"/>
<polygon fill="black" stroke="black" points="257.64,-261.86 260.7,-251.72 251.98,-257.74 257.64,-261.86"/>
</g>
<!-- 15 -->
<g id="node18" class="node">
<title>15</title>
<ellipse fill="none" stroke="black" cx="200.87" cy="-234" rx="27" ry="18"/>
<text text-anchor="middle" x="200.87" y="-228.95" font-family="Times,serif" font-size="14.00">15</text>
</g>
<!-- 11&#45;&gt;15 -->
<g id="edge21" class="edge">
<title>11&#45;&gt;15</title>
<path fill="none" stroke="black" d="M216.79,-288.05C214.49,-280.4 211.72,-271.16 209.14,-262.56"/>
<polygon fill="black" stroke="black" points="212.57,-261.81 206.35,-253.24 205.87,-263.82 212.57,-261.81"/>
</g>
<!-- 10&#45;&gt;15 -->
<g id="edge22" class="edge">
<title>10&#45;&gt;15</title>
<path fill="none" stroke="black" d="M154.68,-289.81C162.33,-280.73 172.22,-269 180.88,-258.72"/>
<polygon fill="black" stroke="black" points="183.35,-261.22 187.12,-251.32 178,-256.71 183.35,-261.22"/>
</g>
<!-- 14 -->
<g id="node19" class="node">
<title>14</title>
<ellipse fill="none" stroke="black" cx="128.87" cy="-234" rx="27" ry="18"/>
<text text-anchor="middle" x="128.87" y="-228.95" font-family="Times,serif" font-size="14.00">14</text>
</g>
<!-- 10&#45;&gt;14 -->
<g id="edge23" class="edge">
<title>10&#45;&gt;14</title>
<path fill="none" stroke="black" d="M138.66,-287.7C137.29,-280.32 135.66,-271.52 134.12,-263.25"/>
<polygon fill="black" stroke="black" points="137.59,-262.79 132.33,-253.59 130.71,-264.06 137.59,-262.79"/>
</g>
<!-- 10&#45;&gt;13 -->
<g id="edge24" class="edge">
<title>10&#45;&gt;13</title>
<path fill="none" stroke="black" d="M125.48,-291.5C113.22,-281.4 96.21,-267.39 82.2,-255.86"/>
<polygon fill="black" stroke="black" points="84.61,-253.31 74.67,-249.66 80.16,-258.72 84.61,-253.31"/>
</g>
<!-- 14&#45;&gt;18 -->
<g id="edge27" class="edge">
<title>14&#45;&gt;18</title>
<path fill="none" stroke="black" d="M137.22,-216.76C141.45,-208.55 146.68,-198.37 151.45,-189.09"/>
<polygon fill="black" stroke="black" points="154.42,-190.99 155.88,-180.49 148.19,-187.79 154.42,-190.99"/>
</g>
<!-- 17 -->
<g id="node22" class="node">
<title>17</title>
<ellipse fill="none" stroke="black" cx="56.87" cy="-162" rx="27" ry="18"/>
<text text-anchor="middle" x="56.87" y="-156.95" font-family="Times,serif" font-size="14.00">17</text>
</g>
<!-- 13&#45;&gt;17 -->
<g id="edge29" class="edge">
<title>13&#45;&gt;17</title>
<path fill="none" stroke="black" d="M56.87,-215.7C56.87,-208.41 56.87,-199.73 56.87,-191.54"/>
<polygon fill="black" stroke="black" points="60.37,-191.62 56.87,-181.62 53.37,-191.62 60.37,-191.62"/>
</g>
<!-- 18&#45;&gt;21 -->
<g id="edge30" class="edge">
<title>18&#45;&gt;21</title>
<path fill="none" stroke="black" d="M164.87,-143.7C164.87,-136.41 164.87,-127.73 164.87,-119.54"/>
<polygon fill="black" stroke="black" points="168.37,-119.62 164.87,-109.62 161.37,-119.62 168.37,-119.62"/>
</g>
<!-- 21&#45;&gt;23 -->
<g id="edge32" class="edge">
<title>21&#45;&gt;23</title>
<path fill="none" stroke="black" d="M185.67,-78.22C208.03,-66.62 243.81,-48.07 269.36,-34.82"/>
<polygon fill="black" stroke="black" points="270.66,-38.09 277.93,-30.38 267.44,-31.87 270.66,-38.09"/>
</g>
</g>
</svg>
