<?xml version="1.0" encoding="UTF-8" standalone="no"?>
<!DOCTYPE svg PUBLIC "-//W3C//DTD SVG 1.1//EN"
 "http://www.w3.org/Graphics/SVG/1.1/DTD/svg11.dtd">
<!-- Generated by graphviz version 11.0.0~dev.20240329.2055 (20240329.2055)
 -->
<!-- Pages: 1 -->
<svg width="172pt" height="260pt"
 viewBox="0.00 0.00 172.00 260.00" xmlns="http://www.w3.org/2000/svg" xmlns:xlink="http://www.w3.org/1999/xlink">
<g id="graph0" class="graph" transform="scale(1 1) rotate(0) translate(4 256)">
<polygon fill="white" stroke="none" points="-4,4 -4,-256 168,-256 168,4 -4,4"/>
<!-- a -->
<g id="node1" class="node">
<title>a</title>
<ellipse fill="none" stroke="black" cx="54" cy="-234" rx="27" ry="18"/>
<text text-anchor="middle" x="54" y="-228.95" font-family="Times,serif" font-size="14.00">a</text>
</g>
<!-- c -->
<g id="node2" class="node">
<title>c</title>
<ellipse fill="none" stroke="black" cx="54" cy="-162" rx="27" ry="18"/>
<text text-anchor="middle" x="54" y="-156.95" font-family="Times,serif" font-size="14.00">c</text>
</g>
<!-- a&#45;&gt;c -->
<g id="edge1" class="edge">
<title>a&#45;&gt;c</title>
<path fill="none" stroke="black" d="M54,-215.7C54,-208.41 54,-199.73 54,-191.54"/>
<polygon fill="black" stroke="black" points="57.5,-191.62 54,-181.62 50.5,-191.62 57.5,-191.62"/>
</g>
<!-- e -->
<g id="node5" class="node">
<title>e</title>
<ellipse fill="none" stroke="black" cx="27" cy="-90" rx="27" ry="18"/>
<text text-anchor="middle" x="27" y="-84.95" font-family="Times,serif" font-size="14.00">e</text>
</g>
<!-- c&#45;&gt;e -->
<g id="edge3" class="edge">
<title>c&#45;&gt;e</title>
<path fill="none" stroke="black" d="M47.46,-144.05C44.48,-136.32 40.87,-126.96 37.52,-118.27"/>
<polygon fill="black" stroke="black" points="40.88,-117.27 34.02,-109.2 34.35,-119.79 40.88,-117.27"/>
</g>
<!-- b -->
<g id="node3" class="node">
<title>b</title>
<ellipse fill="none" stroke="black" cx="137" cy="-90" rx="27" ry="18"/>
<text text-anchor="middle" x="137" y="-84.95" font-family="Times,serif" font-size="14.00">b</text>
</g>
<!-- d -->
<g id="node4" class="node">
<title>d</title>
<ellipse fill="none" stroke="black" cx="82" cy="-18" rx="27" ry="18"/>
<text text-anchor="middle" x="82" y="-12.95" font-family="Times,serif" font-size="14.00">d</text>
</g>
<!-- b&#45;&gt;d -->
<g id="edge2" class="edge">
<title>b&#45;&gt;d</title>
<path fill="none" stroke="black" d="M124.79,-73.46C117.89,-64.67 109.09,-53.48 101.27,-43.53"/>
<polygon fill="black" stroke="black" points="104.04,-41.38 95.11,-35.68 98.53,-45.71 104.04,-41.38"/>
</g>
<!-- d&#45;&gt;c -->
<g id="edge5" class="edge">
<title>d&#45;&gt;c</title>
<path fill="none" stroke="black" d="M78.61,-36.19C73.87,-60.21 65.22,-104.11 59.54,-132.91"/>
<polygon fill="black" stroke="black" points="56.17,-131.9 57.67,-142.39 63.04,-133.25 56.17,-131.9"/>
</g>
<!-- e&#45;&gt;d -->
<g id="edge4" class="edge">
<title>e&#45;&gt;d</title>
<path fill="none" stroke="black" d="M39.21,-73.46C46.11,-64.67 54.91,-53.48 62.73,-43.53"/>
<polygon fill="black" stroke="black" points="65.47,-45.71 68.89,-35.68 59.96,-41.38 65.47,-45.71"/>
</g>
</g>
</svg>
