<?xml version="1.0" encoding="UTF-8" standalone="no"?>
<!DOCTYPE svg PUBLIC "-//W3C//DTD SVG 1.1//EN"
 "http://www.w3.org/Graphics/SVG/1.1/DTD/svg11.dtd">
<!-- Generated by graphviz version 11.0.0~dev.20240329.2055 (20240329.2055)
 -->
<!-- Pages: 1 -->
<svg width="62pt" height="116pt"
 viewBox="0.00 0.00 62.00 116.00" xmlns="http://www.w3.org/2000/svg" xmlns:xlink="http://www.w3.org/1999/xlink">
<g id="graph0" class="graph" transform="scale(1 1) rotate(0) translate(4 112)">
<polygon fill="white" stroke="none" points="-4,4 -4,-112 58,-112 58,4 -4,4"/>
<!-- a -->
<g id="node1" class="node">
<title>a</title>
<ellipse fill="none" stroke="black" cx="27" cy="-90" rx="27" ry="18"/>
<text text-anchor="middle" x="27" y="-84.95" font-family="Times,serif" font-size="14.00">a</text>
</g>
<!-- b -->
<g id="node2" class="node">
<title>b</title>
<ellipse fill="none" stroke="black" cx="27" cy="-18" rx="27" ry="18"/>
<text text-anchor="middle" x="27" y="-12.95" font-family="Times,serif" font-size="14.00">b</text>
</g>
<!-- a&#45;&gt;b -->
<g id="edge1" class="edge">
<title>a&#45;&gt;b</title>
<path fill="none" stroke="black" d="M21.12,-72.05C20.33,-64.57 20.08,-55.58 20.37,-47.14"/>
<polygon fill="black" stroke="black" points="23.85,-47.51 21.04,-37.3 16.87,-47.04 23.85,-47.51"/>
</g>
<!-- b&#45;&gt;a -->
<g id="edge2" class="edge">
<title>b&#45;&gt;a</title>
<path fill="none" stroke="black" d="M32.86,-35.79C33.66,-43.25 33.92,-52.24 33.64,-60.69"/>
<polygon fill="black" stroke="black" points="30.16,-60.33 32.98,-70.54 37.14,-60.8 30.16,-60.33"/>
</g>
</g>
</svg>
