<?xml version="1.0" encoding="UTF-8" standalone="no"?>
<!DOCTYPE svg PUBLIC "-//W3C//DTD SVG 1.1//EN"
 "http://www.w3.org/Graphics/SVG/1.1/DTD/svg11.dtd">
<!-- Generated by graphviz version 11.0.0~dev.20240329.2055 (20240329.2055)
 -->
<!-- Pages: 1 -->
<svg width="206pt" height="332pt"
 viewBox="0.00 0.00 206.00 332.00" xmlns="http://www.w3.org/2000/svg" xmlns:xlink="http://www.w3.org/1999/xlink">
<g id="graph0" class="graph" transform="scale(1 1) rotate(0) translate(4 328)">
<polygon fill="white" stroke="none" points="-4,4 -4,-328 202,-328 202,4 -4,4"/>
<!-- a -->
<g id="node1" class="node">
<title>a</title>
<ellipse fill="none" stroke="black" cx="99" cy="-306" rx="27" ry="18"/>
<text text-anchor="middle" x="99" y="-300.95" font-family="Times,serif" font-size="14.00">a</text>
</g>
<!-- e -->
<g id="node2" class="node">
<title>e</title>
<ellipse fill="none" stroke="black" cx="27" cy="-234" rx="27" ry="18"/>
<text text-anchor="middle" x="27" y="-228.95" font-family="Times,serif" font-size="14.00">e</text>
</g>
<!-- a&#45;&gt;e -->
<g id="edge1" class="edge">
<title>a&#45;&gt;e</title>
<path fill="none" stroke="black" d="M84.08,-290.5C74.23,-280.92 61.14,-268.19 49.97,-257.34"/>
<polygon fill="black" stroke="black" points="52.59,-255 42.98,-250.54 47.71,-260.02 52.59,-255"/>
</g>
<!-- f -->
<g id="node3" class="node">
<title>f</title>
<ellipse fill="none" stroke="black" cx="99" cy="-234" rx="27" ry="18"/>
<text text-anchor="middle" x="99" y="-228.95" font-family="Times,serif" font-size="14.00">f</text>
</g>
<!-- a&#45;&gt;f -->
<g id="edge2" class="edge">
<title>a&#45;&gt;f</title>
<path fill="none" stroke="black" d="M99,-287.7C99,-280.41 99,-271.73 99,-263.54"/>
<polygon fill="black" stroke="black" points="102.5,-263.62 99,-253.62 95.5,-263.62 102.5,-263.62"/>
</g>
<!-- b -->
<g id="node4" class="node">
<title>b</title>
<ellipse fill="none" stroke="black" cx="171" cy="-234" rx="27" ry="18"/>
<text text-anchor="middle" x="171" y="-228.95" font-family="Times,serif" font-size="14.00">b</text>
</g>
<!-- a&#45;&gt;b -->
<g id="edge3" class="edge">
<title>a&#45;&gt;b</title>
<path fill="none" stroke="black" d="M113.92,-290.5C123.77,-280.92 136.86,-268.19 148.03,-257.34"/>
<polygon fill="black" stroke="black" points="150.29,-260.02 155.02,-250.54 145.41,-255 150.29,-260.02"/>
</g>
<!-- g -->
<g id="node5" class="node">
<title>g</title>
<ellipse fill="none" stroke="black" cx="99" cy="-162" rx="27" ry="18"/>
<text text-anchor="middle" x="99" y="-156.95" font-family="Times,serif" font-size="14.00">g</text>
</g>
<!-- e&#45;&gt;g -->
<g id="edge4" class="edge">
<title>e&#45;&gt;g</title>
<path fill="none" stroke="black" d="M41.92,-218.5C51.77,-208.92 64.86,-196.19 76.03,-185.34"/>
<polygon fill="black" stroke="black" points="78.29,-188.02 83.02,-178.54 73.41,-183 78.29,-188.02"/>
</g>
<!-- f&#45;&gt;g -->
<g id="edge5" class="edge">
<title>f&#45;&gt;g</title>
<path fill="none" stroke="black" d="M99,-215.7C99,-208.41 99,-199.73 99,-191.54"/>
<polygon fill="black" stroke="black" points="102.5,-191.62 99,-181.62 95.5,-191.62 102.5,-191.62"/>
</g>
<!-- c -->
<g id="node6" class="node">
<title>c</title>
<ellipse fill="none" stroke="black" cx="171" cy="-162" rx="27" ry="18"/>
<text text-anchor="middle" x="171" y="-156.95" font-family="Times,serif" font-size="14.00">c</text>
</g>
<!-- b&#45;&gt;c -->
<g id="edge6" class="edge">
<title>b&#45;&gt;c</title>
<path fill="none" stroke="black" d="M171,-215.7C171,-208.41 171,-199.73 171,-191.54"/>
<polygon fill="black" stroke="black" points="174.5,-191.62 171,-181.62 167.5,-191.62 174.5,-191.62"/>
</g>
<!-- h -->
<g id="node8" class="node">
<title>h</title>
<ellipse fill="none" stroke="black" cx="134" cy="-18" rx="27" ry="18"/>
<text text-anchor="middle" x="134" y="-12.95" font-family="Times,serif" font-size="14.00">h</text>
</g>
<!-- g&#45;&gt;h -->
<g id="edge9" class="edge">
<title>g&#45;&gt;h</title>
<path fill="none" stroke="black" d="M103.22,-143.87C109.13,-119.88 119.95,-75.99 127.06,-47.16"/>
<polygon fill="black" stroke="black" points="130.41,-48.21 129.4,-37.66 123.61,-46.53 130.41,-48.21"/>
</g>
<!-- d -->
<g id="node7" class="node">
<title>d</title>
<ellipse fill="none" stroke="black" cx="166" cy="-90" rx="27" ry="18"/>
<text text-anchor="middle" x="166" y="-84.95" font-family="Times,serif" font-size="14.00">d</text>
</g>
<!-- c&#45;&gt;d -->
<g id="edge7" class="edge">
<title>c&#45;&gt;d</title>
<path fill="none" stroke="black" d="M169.76,-143.7C169.24,-136.41 168.62,-127.73 168.04,-119.54"/>
<polygon fill="black" stroke="black" points="171.53,-119.34 167.33,-109.61 164.55,-119.84 171.53,-119.34"/>
</g>
<!-- d&#45;&gt;h -->
<g id="edge8" class="edge">
<title>d&#45;&gt;h</title>
<path fill="none" stroke="black" d="M158.42,-72.41C154.79,-64.48 150.36,-54.78 146.27,-45.84"/>
<polygon fill="black" stroke="black" points="149.5,-44.49 142.16,-36.85 143.13,-47.4 149.5,-44.49"/>
</g>
</g>
</svg>
