<?xml version="1.0" encoding="UTF-8" standalone="no"?>
<!DOCTYPE svg PUBLIC "-//W3C//DTD SVG 1.1//EN"
 "http://www.w3.org/Graphics/SVG/1.1/DTD/svg11.dtd">
<!-- Generated by graphviz version 11.0.0~dev.20240329.2055 (20240329.2055)
 -->
<!-- Pages: 1 -->
<svg width="422pt" height="332pt"
 viewBox="0.00 0.00 422.00 332.00" xmlns="http://www.w3.org/2000/svg" xmlns:xlink="http://www.w3.org/1999/xlink">
<g id="graph0" class="graph" transform="scale(1 1) rotate(0) translate(4 328)">
<polygon fill="white" stroke="none" points="-4,4 -4,-328 418,-328 418,4 -4,4"/>
<!-- a -->
<g id="node1" class="node">
<title>a</title>
<ellipse fill="none" stroke="black" cx="207" cy="-306" rx="27" ry="18"/>
<text text-anchor="middle" x="207" y="-300.95" font-family="Times,serif" font-size="14.00">a</text>
</g>
<!-- b -->
<g id="node2" class="node">
<title>b</title>
<ellipse fill="none" stroke="black" cx="27" cy="-234" rx="27" ry="18"/>
<text text-anchor="middle" x="27" y="-228.95" font-family="Times,serif" font-size="14.00">b</text>
</g>
<!-- a&#45;&gt;b -->
<g id="edge1" class="edge">
<title>a&#45;&gt;b</title>
<path fill="none" stroke="black" d="M183.05,-296.91C154.27,-287.03 104.64,-269.46 63,-252 61.49,-251.37 59.94,-250.7 58.39,-250.02"/>
<polygon fill="black" stroke="black" points="60.11,-246.96 49.56,-246.01 57.21,-253.33 60.11,-246.96"/>
</g>
<!-- e -->
<g id="node3" class="node">
<title>e</title>
<ellipse fill="none" stroke="black" cx="99" cy="-234" rx="27" ry="18"/>
<text text-anchor="middle" x="99" y="-228.95" font-family="Times,serif" font-size="14.00">e</text>
</g>
<!-- a&#45;&gt;e -->
<g id="edge2" class="edge">
<title>a&#45;&gt;e</title>
<path fill="none" stroke="black" d="M188.19,-292.81C171.41,-281.93 146.61,-265.86 127.41,-253.42"/>
<polygon fill="black" stroke="black" points="129.52,-250.61 119.23,-248.11 125.72,-256.49 129.52,-250.61"/>
</g>
<!-- f -->
<g id="node4" class="node">
<title>f</title>
<ellipse fill="none" stroke="black" cx="171" cy="-234" rx="27" ry="18"/>
<text text-anchor="middle" x="171" y="-228.95" font-family="Times,serif" font-size="14.00">f</text>
</g>
<!-- a&#45;&gt;f -->
<g id="edge3" class="edge">
<title>a&#45;&gt;f</title>
<path fill="none" stroke="black" d="M198.65,-288.76C194.42,-280.55 189.19,-270.37 184.42,-261.09"/>
<polygon fill="black" stroke="black" points="187.68,-259.79 180,-252.49 181.46,-262.99 187.68,-259.79"/>
</g>
<!-- i -->
<g id="node9" class="node">
<title>i</title>
<ellipse fill="none" stroke="black" cx="243" cy="-234" rx="27" ry="18"/>
<text text-anchor="middle" x="243" y="-228.95" font-family="Times,serif" font-size="14.00">i</text>
</g>
<!-- a&#45;&gt;i -->
<g id="edge10" class="edge">
<title>a&#45;&gt;i</title>
<path fill="none" stroke="black" d="M215.35,-288.76C219.58,-280.55 224.81,-270.37 229.58,-261.09"/>
<polygon fill="black" stroke="black" points="232.54,-262.99 234,-252.49 226.32,-259.79 232.54,-262.99"/>
</g>
<!-- j -->
<g id="node10" class="node">
<title>j</title>
<ellipse fill="none" stroke="black" cx="315" cy="-234" rx="27" ry="18"/>
<text text-anchor="middle" x="315" y="-228.95" font-family="Times,serif" font-size="14.00">j</text>
</g>
<!-- a&#45;&gt;j -->
<g id="edge11" class="edge">
<title>a&#45;&gt;j</title>
<path fill="none" stroke="black" d="M225.81,-292.81C242.59,-281.93 267.39,-265.86 286.59,-253.42"/>
<polygon fill="black" stroke="black" points="288.28,-256.49 294.77,-248.11 284.48,-250.61 288.28,-256.49"/>
</g>
<!-- k -->
<g id="node11" class="node">
<title>k</title>
<ellipse fill="none" stroke="black" cx="387" cy="-234" rx="27" ry="18"/>
<text text-anchor="middle" x="387" y="-228.95" font-family="Times,serif" font-size="14.00">k</text>
</g>
<!-- a&#45;&gt;k -->
<g id="edge12" class="edge">
<title>a&#45;&gt;k</title>
<path fill="none" stroke="black" d="M230.95,-296.91C259.73,-287.03 309.36,-269.46 351,-252 352.51,-251.37 354.06,-250.7 355.61,-250.02"/>
<polygon fill="black" stroke="black" points="356.79,-253.33 364.44,-246.01 353.89,-246.96 356.79,-253.33"/>
</g>
<!-- c -->
<g id="node6" class="node">
<title>c</title>
<ellipse fill="none" stroke="black" cx="45" cy="-162" rx="27" ry="18"/>
<text text-anchor="middle" x="45" y="-156.95" font-family="Times,serif" font-size="14.00">c</text>
</g>
<!-- b&#45;&gt;c -->
<g id="edge6" class="edge">
<title>b&#45;&gt;c</title>
<path fill="none" stroke="black" d="M31.36,-216.05C33.3,-208.49 35.65,-199.37 37.84,-190.85"/>
<polygon fill="black" stroke="black" points="41.21,-191.81 40.31,-181.25 34.43,-190.07 41.21,-191.81"/>
</g>
<!-- g -->
<g id="node5" class="node">
<title>g</title>
<ellipse fill="none" stroke="black" cx="153" cy="-162" rx="27" ry="18"/>
<text text-anchor="middle" x="153" y="-156.95" font-family="Times,serif" font-size="14.00">g</text>
</g>
<!-- e&#45;&gt;g -->
<g id="edge4" class="edge">
<title>e&#45;&gt;g</title>
<path fill="none" stroke="black" d="M110.98,-217.46C117.77,-208.67 126.4,-197.48 134.08,-187.53"/>
<polygon fill="black" stroke="black" points="136.79,-189.75 140.12,-179.69 131.25,-185.47 136.79,-189.75"/>
</g>
<!-- f&#45;&gt;g -->
<g id="edge5" class="edge">
<title>f&#45;&gt;g</title>
<path fill="none" stroke="black" d="M166.64,-216.05C164.7,-208.49 162.35,-199.37 160.16,-190.85"/>
<polygon fill="black" stroke="black" points="163.57,-190.07 157.69,-181.25 156.79,-191.81 163.57,-190.07"/>
</g>
<!-- h -->
<g id="node8" class="node">
<title>h</title>
<ellipse fill="none" stroke="black" cx="153" cy="-18" rx="27" ry="18"/>
<text text-anchor="middle" x="153" y="-12.95" font-family="Times,serif" font-size="14.00">h</text>
</g>
<!-- g&#45;&gt;h -->
<g id="edge9" class="edge">
<title>g&#45;&gt;h</title>
<path fill="none" stroke="black" d="M153,-143.59C153,-119.61 153,-76.14 153,-47.42"/>
<polygon fill="black" stroke="black" points="156.5,-47.62 153,-37.62 149.5,-47.62 156.5,-47.62"/>
</g>
<!-- d -->
<g id="node7" class="node">
<title>d</title>
<ellipse fill="none" stroke="black" cx="72" cy="-90" rx="27" ry="18"/>
<text text-anchor="middle" x="72" y="-84.95" font-family="Times,serif" font-size="14.00">d</text>
</g>
<!-- c&#45;&gt;d -->
<g id="edge7" class="edge">
<title>c&#45;&gt;d</title>
<path fill="none" stroke="black" d="M51.54,-144.05C54.52,-136.32 58.13,-126.96 61.48,-118.27"/>
<polygon fill="black" stroke="black" points="64.65,-119.79 64.98,-109.2 58.12,-117.27 64.65,-119.79"/>
</g>
<!-- d&#45;&gt;h -->
<g id="edge8" class="edge">
<title>d&#45;&gt;h</title>
<path fill="none" stroke="black" d="M88,-75.17C99.54,-65.2 115.33,-51.56 128.45,-40.21"/>
<polygon fill="black" stroke="black" points="130.61,-42.98 135.89,-33.79 126.03,-37.68 130.61,-42.98"/>
</g>
<!-- l -->
<g id="node12" class="node">
<title>l</title>
<ellipse fill="none" stroke="black" cx="279" cy="-162" rx="27" ry="18"/>
<text text-anchor="middle" x="279" y="-156.95" font-family="Times,serif" font-size="14.00">l</text>
</g>
<!-- i&#45;&gt;l -->
<g id="edge13" class="edge">
<title>i&#45;&gt;l</title>
<path fill="none" stroke="black" d="M251.35,-216.76C255.58,-208.55 260.81,-198.37 265.58,-189.09"/>
<polygon fill="black" stroke="black" points="268.54,-190.99 270,-180.49 262.32,-187.79 268.54,-190.99"/>
</g>
<!-- j&#45;&gt;l -->
<g id="edge14" class="edge">
<title>j&#45;&gt;l</title>
<path fill="none" stroke="black" d="M306.65,-216.76C302.42,-208.55 297.19,-198.37 292.42,-189.09"/>
<polygon fill="black" stroke="black" points="295.68,-187.79 288,-180.49 289.46,-190.99 295.68,-187.79"/>
</g>
<!-- k&#45;&gt;l -->
<g id="edge15" class="edge">
<title>k&#45;&gt;l</title>
<path fill="none" stroke="black" d="M368.19,-220.81C351.41,-209.93 326.61,-193.86 307.41,-181.42"/>
<polygon fill="black" stroke="black" points="309.52,-178.61 299.23,-176.11 305.72,-184.49 309.52,-178.61"/>
</g>
<!-- l&#45;&gt;h -->
<g id="edge16" class="edge">
<title>l&#45;&gt;h</title>
<path fill="none" stroke="black" d="M265.75,-146.07C243.77,-121.29 199.58,-71.49 173.53,-42.13"/>
<polygon fill="black" stroke="black" points="176.33,-40.02 167.07,-34.86 171.09,-44.66 176.33,-40.02"/>
</g>
</g>
</svg>
