<svg xmlns="http://www.w3.org/2000/svg" width="216" height="306"
                    viewBox="-36 -36 216 306"
                    preserveAspectRatio="xMinYMin meet"
                    >
<defs>
                    <marker
                        id="arrow-head"
                        orient="auto"
                        viewBox="0 0 15 10"
                        refX="15" refY="5"
                        markerWidth="10" markerHeight="15"
                    >
                        <path d="M0,0 L15,5 L0,10 Z" fill="black"/>
                    </marker>
                </defs>
<path marker-end="url(#arrow-head)" d="M72 90 L10.182337649086286 151.8176623509137" stroke="black" stroke-width="1px"/>
<path marker-end="url(#arrow-head)" d="M72 90 L72 147.6" stroke="black" stroke-width="1px"/>
<path marker-end="url(#arrow-head)" d="M72 90 L133.8176623509137 151.8176623509137" stroke="black" stroke-width="1px"/>
<path marker-end="url(#arrow-head)" d="M0 162 L0.0000000000000008817456953860943 219.6" stroke="black" stroke-width="1px"/>
<path marker-end="url(#arrow-head)" d="M72 162 L133.8176623509137 223.8176623509137" stroke="black" stroke-width="1px"/>
<path marker-end="url(#arrow-head)" d="M144 162 L144 219.6" stroke="black" stroke-width="1px"/>
<path marker-end="url(#arrow-head)" d="M144 162 L82.18233764908629 223.8176623509137" stroke="black" stroke-width="1px"/>
<path marker-end="url(#arrow-head)" d="M0 162 L61.817662350913714 223.8176623509137" stroke="black" stroke-width="1px"/>
<path marker-end="url(#arrow-head)" d="M72 162 L10.182337649086286 223.8176623509137" stroke="black" stroke-width="1px"/>
<circle cx="72" cy="90" r="14.4" style="fill: skyblue; stroke: black; stroke-width: 1px;"/>
<text x="72" y="98" style="font-size:24; text-anchor: middle">0</text>
<circle cx="0" cy="162" r="14.4" style="fill: skyblue; stroke: black; stroke-width: 1px;"/>
<text x="0" y="170" style="font-size:24; text-anchor: middle">a1</text>
<circle cx="72" cy="162" r="14.4" style="fill: skyblue; stroke: black; stroke-width: 1px;"/>
<text x="72" y="170" style="font-size:24; text-anchor: middle">b1</text>
<circle cx="144" cy="162" r="14.4" style="fill: skyblue; stroke: black; stroke-width: 1px;"/>
<text x="144" y="170" style="font-size:24; text-anchor: middle">c1</text>
<circle cx="0" cy="234" r="14.4" style="fill: skyblue; stroke: black; stroke-width: 1px;"/>
<text x="0" y="242" style="font-size:24; text-anchor: middle">b2</text>
<circle cx="144" cy="234" r="14.4" style="fill: skyblue; stroke: black; stroke-width: 1px;"/>
<text x="144" y="242" style="font-size:24; text-anchor: middle">a2</text>
<circle cx="72" cy="234" r="14.4" style="fill: skyblue; stroke: black; stroke-width: 1px;"/>
<text x="72" y="242" style="font-size:24; text-anchor: middle">c2</text>
</svg>
