<?xml version="1.0" encoding="UTF-8" standalone="no"?>
<!DOCTYPE svg PUBLIC "-//W3C//DTD SVG 1.1//EN"
 "http://www.w3.org/Graphics/SVG/1.1/DTD/svg11.dtd">
<!-- Generated by graphviz version 11.0.0~dev.20240329.2055 (20240329.2055)
 -->
<!-- Pages: 1 -->
<svg width="333pt" height="332pt"
 viewBox="0.00 0.00 333.00 332.00" xmlns="http://www.w3.org/2000/svg" xmlns:xlink="http://www.w3.org/1999/xlink">
<g id="graph0" class="graph" transform="scale(1 1) rotate(0) translate(4 328)">
<polygon fill="white" stroke="none" points="-4,4 -4,-328 329,-328 329,4 -4,4"/>
<!-- 1 -->
<g id="node1" class="node">
<title>1</title>
<ellipse fill="none" stroke="black" cx="120" cy="-306" rx="27" ry="18"/>
<text text-anchor="middle" x="120" y="-300.95" font-family="Times,serif" font-size="14.00">1</text>
</g>
<!-- 8 -->
<g id="node2" class="node">
<title>8</title>
<ellipse fill="none" stroke="black" cx="178" cy="-234" rx="27" ry="18"/>
<text text-anchor="middle" x="178" y="-228.95" font-family="Times,serif" font-size="14.00">8</text>
</g>
<!-- 1&#45;&gt;8 -->
<g id="edge1" class="edge">
<title>1&#45;&gt;8</title>
<path fill="none" stroke="black" d="M132.59,-289.81C140.11,-280.73 149.83,-269 158.35,-258.72"/>
<polygon fill="black" stroke="black" points="160.79,-261.26 164.47,-251.32 155.4,-256.79 160.79,-261.26"/>
</g>
<!-- 13 -->
<g id="node11" class="node">
<title>13</title>
<ellipse fill="none" stroke="black" cx="27" cy="-90" rx="27" ry="18"/>
<text text-anchor="middle" x="27" y="-84.95" font-family="Times,serif" font-size="14.00">13</text>
</g>
<!-- 1&#45;&gt;13 -->
<g id="edge16" class="edge">
<title>1&#45;&gt;13</title>
<path fill="none" stroke="black" d="M112.7,-288.21C96.68,-251.33 58.28,-162.98 38.79,-118.12"/>
<polygon fill="black" stroke="black" points="42.06,-116.88 34.87,-109.1 35.64,-119.67 42.06,-116.88"/>
</g>
<!-- 16 -->
<g id="node5" class="node">
<title>16</title>
<ellipse fill="none" stroke="black" cx="243" cy="-90" rx="27" ry="18"/>
<text text-anchor="middle" x="243" y="-84.95" font-family="Times,serif" font-size="14.00">16</text>
</g>
<!-- 8&#45;&gt;16 -->
<g id="edge4" class="edge">
<title>8&#45;&gt;16</title>
<path fill="none" stroke="black" d="M190.26,-217.48C197.88,-207.28 207.44,-193.38 214,-180 223.57,-160.49 231.05,-137.08 236.02,-119.17"/>
<polygon fill="black" stroke="black" points="239.33,-120.31 238.53,-109.75 232.57,-118.51 239.33,-120.31"/>
</g>
<!-- 11 -->
<g id="node7" class="node">
<title>11</title>
<ellipse fill="none" stroke="black" cx="178" cy="-162" rx="27" ry="18"/>
<text text-anchor="middle" x="178" y="-156.95" font-family="Times,serif" font-size="14.00">11</text>
</g>
<!-- 8&#45;&gt;11 -->
<g id="edge6" class="edge">
<title>8&#45;&gt;11</title>
<path fill="none" stroke="black" d="M178,-215.7C178,-208.41 178,-199.73 178,-191.54"/>
<polygon fill="black" stroke="black" points="181.5,-191.62 178,-181.62 174.5,-191.62 181.5,-191.62"/>
</g>
<!-- 10 -->
<g id="node8" class="node">
<title>10</title>
<ellipse fill="none" stroke="black" cx="102" cy="-162" rx="27" ry="18"/>
<text text-anchor="middle" x="102" y="-156.95" font-family="Times,serif" font-size="14.00">10</text>
</g>
<!-- 8&#45;&gt;10 -->
<g id="edge7" class="edge">
<title>8&#45;&gt;10</title>
<path fill="none" stroke="black" d="M162.62,-218.83C152.01,-209.06 137.7,-195.88 125.65,-184.78"/>
<polygon fill="black" stroke="black" points="128.2,-182.37 118.47,-178.17 123.45,-187.52 128.2,-182.37"/>
</g>
<!-- 2 -->
<g id="node3" class="node">
<title>2</title>
<ellipse fill="none" stroke="black" cx="236" cy="-306" rx="27" ry="18"/>
<text text-anchor="middle" x="236" y="-300.95" font-family="Times,serif" font-size="14.00">2</text>
</g>
<!-- 2&#45;&gt;8 -->
<g id="edge2" class="edge">
<title>2&#45;&gt;8</title>
<path fill="none" stroke="black" d="M223.41,-289.81C215.89,-280.73 206.17,-269 197.65,-258.72"/>
<polygon fill="black" stroke="black" points="200.6,-256.79 191.53,-251.32 195.21,-261.26 200.6,-256.79"/>
</g>
<!-- 20 -->
<g id="node4" class="node">
<title>20</title>
<ellipse fill="none" stroke="black" cx="298" cy="-18" rx="27" ry="18"/>
<text text-anchor="middle" x="298" y="-12.95" font-family="Times,serif" font-size="14.00">20</text>
</g>
<!-- 2&#45;&gt;20 -->
<g id="edge3" class="edge">
<title>2&#45;&gt;20</title>
<path fill="none" stroke="black" d="M239.76,-287.88C247.28,-253.69 264.63,-174.55 279,-108 283.39,-87.67 288.29,-64.72 292.01,-47.22"/>
<polygon fill="black" stroke="black" points="295.41,-48.06 294.07,-37.55 288.56,-46.6 295.41,-48.06"/>
</g>
<!-- 16&#45;&gt;20 -->
<g id="edge13" class="edge">
<title>16&#45;&gt;20</title>
<path fill="none" stroke="black" d="M255.21,-73.46C262.11,-64.67 270.91,-53.48 278.73,-43.53"/>
<polygon fill="black" stroke="black" points="281.47,-45.71 284.89,-35.68 275.96,-41.38 281.47,-45.71"/>
</g>
<!-- 19 -->
<g id="node6" class="node">
<title>19</title>
<ellipse fill="none" stroke="black" cx="226" cy="-18" rx="27" ry="18"/>
<text text-anchor="middle" x="226" y="-12.95" font-family="Times,serif" font-size="14.00">19</text>
</g>
<!-- 16&#45;&gt;19 -->
<g id="edge5" class="edge">
<title>16&#45;&gt;19</title>
<path fill="none" stroke="black" d="M238.88,-72.05C237.07,-64.6 234.9,-55.64 232.85,-47.22"/>
<polygon fill="black" stroke="black" points="236.31,-46.64 230.55,-37.75 229.51,-48.29 236.31,-46.64"/>
</g>
<!-- 18 -->
<g id="node12" class="node">
<title>18</title>
<ellipse fill="none" stroke="black" cx="126" cy="-18" rx="27" ry="18"/>
<text text-anchor="middle" x="126" y="-12.95" font-family="Times,serif" font-size="14.00">18</text>
</g>
<!-- 16&#45;&gt;18 -->
<g id="edge14" class="edge">
<title>16&#45;&gt;18</title>
<path fill="none" stroke="black" d="M223.42,-77.28C204.86,-66.18 176.73,-49.35 155.46,-36.63"/>
<polygon fill="black" stroke="black" points="157.32,-33.66 146.95,-31.53 153.73,-39.67 157.32,-33.66"/>
</g>
<!-- 11&#45;&gt;16 -->
<g id="edge8" class="edge">
<title>11&#45;&gt;16</title>
<path fill="none" stroke="black" d="M191.78,-146.15C200.4,-136.87 211.68,-124.73 221.46,-114.19"/>
<polygon fill="black" stroke="black" points="223.97,-116.64 228.21,-106.93 218.84,-111.88 223.97,-116.64"/>
</g>
<!-- 15 -->
<g id="node9" class="node">
<title>15</title>
<ellipse fill="none" stroke="black" cx="171" cy="-90" rx="27" ry="18"/>
<text text-anchor="middle" x="171" y="-84.95" font-family="Times,serif" font-size="14.00">15</text>
</g>
<!-- 11&#45;&gt;15 -->
<g id="edge9" class="edge">
<title>11&#45;&gt;15</title>
<path fill="none" stroke="black" d="M176.27,-143.7C175.54,-136.41 174.67,-127.73 173.85,-119.54"/>
<polygon fill="black" stroke="black" points="177.34,-119.21 172.86,-109.61 170.37,-119.91 177.34,-119.21"/>
</g>
<!-- 10&#45;&gt;15 -->
<g id="edge10" class="edge">
<title>10&#45;&gt;15</title>
<path fill="none" stroke="black" d="M116.3,-146.5C125.64,-137.02 138.04,-124.44 148.67,-113.66"/>
<polygon fill="black" stroke="black" points="151.13,-116.14 155.66,-106.56 146.15,-111.23 151.13,-116.14"/>
</g>
<!-- 14 -->
<g id="node10" class="node">
<title>14</title>
<ellipse fill="none" stroke="black" cx="99" cy="-90" rx="27" ry="18"/>
<text text-anchor="middle" x="99" y="-84.95" font-family="Times,serif" font-size="14.00">14</text>
</g>
<!-- 10&#45;&gt;14 -->
<g id="edge11" class="edge">
<title>10&#45;&gt;14</title>
<path fill="none" stroke="black" d="M101.26,-143.7C100.95,-136.41 100.57,-127.73 100.22,-119.54"/>
<polygon fill="black" stroke="black" points="103.72,-119.46 99.8,-109.62 96.73,-119.76 103.72,-119.46"/>
</g>
<!-- 10&#45;&gt;13 -->
<g id="edge12" class="edge">
<title>10&#45;&gt;13</title>
<path fill="none" stroke="black" d="M86.82,-146.83C76.35,-137.06 62.23,-123.88 50.34,-112.78"/>
<polygon fill="black" stroke="black" points="52.96,-110.44 43.26,-106.18 48.18,-115.56 52.96,-110.44"/>
</g>
<!-- 14&#45;&gt;18 -->
<g id="edge15" class="edge">
<title>14&#45;&gt;18</title>
<path fill="none" stroke="black" d="M105.54,-72.05C108.52,-64.32 112.13,-54.96 115.48,-46.27"/>
<polygon fill="black" stroke="black" points="118.65,-47.79 118.98,-37.2 112.12,-45.27 118.65,-47.79"/>
</g>
<!-- 17 -->
<g id="node13" class="node">
<title>17</title>
<ellipse fill="none" stroke="black" cx="27" cy="-18" rx="27" ry="18"/>
<text text-anchor="middle" x="27" y="-12.95" font-family="Times,serif" font-size="14.00">17</text>
</g>
<!-- 13&#45;&gt;17 -->
<g id="edge17" class="edge">
<title>13&#45;&gt;17</title>
<path fill="none" stroke="black" d="M27,-71.7C27,-64.41 27,-55.73 27,-47.54"/>
<polygon fill="black" stroke="black" points="30.5,-47.62 27,-37.62 23.5,-47.62 30.5,-47.62"/>
</g>
</g>
</svg>
